<svg width="357" height="235" viewBox="0 0 357 235" fill="none" xmlns="http://www.w3.org/2000/svg">
<g filter="url(#filter0_d_721_253)">
<path fill-rule="evenodd" clip-rule="evenodd" d="M357.82 3.23597C354.409 3.52645 351.004 4.08602 347.665 4.6347C346.362 4.84895 345.068 5.06154 343.788 5.25579C339.379 5.92498 334.966 6.45556 330.565 6.98465C321.688 8.05189 312.862 9.11306 304.223 11.2935C299.289 12.4163 294.645 11.8372 290.001 11.2581C285.356 10.679 280.712 10.1 275.778 11.2227C258.055 14.3354 171.689 33.3537 155.923 44.3607C147.643 50.0285 139.818 50.6609 131.507 51.3326C129.038 51.5321 126.527 51.735 123.948 52.0743C112.579 53.3671 101.358 56.5305 90.0886 59.7075C79.3561 62.7331 68.5803 65.771 57.5923 67.2168C46.3155 68.7851 35.6693 72.8175 25.0345 76.8455C21.1885 78.3022 17.344 79.7583 13.4718 81.0971C17.9189 80.8447 22.366 80.5923 26.4321 79.0975C18.4688 87.5549 10.6354 100.218 5.59059 114.409C6.2884 115.131 6.97732 115.864 7.66139 116.593C11.1416 120.299 14.4964 123.871 18.2564 125.066C16.61 126.193 15.102 127.629 13.5656 129.092C12.5967 130.015 11.6165 130.948 10.5832 131.822C11.456 134.227 11.4941 135.964 11.5348 137.82C11.5639 139.149 11.5944 140.539 11.9342 142.278C11.0173 142.789 10.3224 143.911 9.66295 144.976C9.11089 145.868 8.58371 146.719 7.97201 147.138C8.26387 147.384 8.63208 147.716 9.0478 148.09C10.6366 149.522 12.9194 151.579 14.2854 151.836C12.8787 153.717 11.3346 155.291 9.81805 156.838C8.8511 157.824 7.89529 158.798 6.99331 159.834C9.09011 164.179 12.1009 168.092 14.9628 171.812C22.095 181.082 28.3025 189.15 17.1344 199.707C18.3631 199.887 19.7405 200.955 21.0203 201.946C21.892 202.621 22.7184 203.262 23.4218 203.563C22.2732 204.349 21.3769 206.081 20.5109 207.754C19.8587 209.014 19.2238 210.24 18.5113 211.005C18.5265 211.497 28.3323 216.784 36.4556 221.163C42.1996 224.26 47.1025 226.903 47.1079 227.078C75.1045 227.168 101.997 215.983 128.838 204.821C142.411 199.176 155.97 193.537 169.653 189.364C222.936 177.634 261.883 167.891 293.032 160.098C318.43 153.745 338.642 148.688 357.213 144.909L357.82 3.23597Z" fill="#B97ACD"/>
</g>
<defs>
<filter id="filter0_d_721_253" x="0.590576" y="0.235962" width="362.229" height="233.842" filterUnits="userSpaceOnUse" color-interpolation-filters="sRGB">
<feFlood flood-opacity="0" result="BackgroundImageFix"/>
<feColorMatrix in="SourceAlpha" type="matrix" values="0 0 0 0 0 0 0 0 0 0 0 0 0 0 0 0 0 0 127 0" result="hardAlpha"/>
<feOffset dy="2"/>
<feGaussianBlur stdDeviation="2.5"/>
<feComposite in2="hardAlpha" operator="out"/>
<feColorMatrix type="matrix" values="0 0 0 0 0 0 0 0 0 0 0 0 0 0 0 0 0 0 0.15 0"/>
<feBlend mode="multiply" in2="BackgroundImageFix" result="effect1_dropShadow_721_253"/>
<feBlend mode="normal" in="SourceGraphic" in2="effect1_dropShadow_721_253" result="shape"/>
</filter>
</defs>
</svg>
