<svg width="357" height="235" viewBox="0 0 357 235" fill="none" xmlns="http://www.w3.org/2000/svg">
<g filter="url(#filter0_d_722_252)">
<path fill-rule="evenodd" clip-rule="evenodd" d="M357.82 3.23597C354.409 3.52645 351.004 4.08602 347.665 4.6347C346.362 4.84895 345.068 5.06154 343.788 5.25579C339.379 5.92498 334.966 6.45556 330.565 6.98465C321.688 8.05189 312.862 9.11306 304.223 11.2935C299.289 12.4163 294.645 11.8372 290.001 11.2581C285.356 10.679 280.712 10.1 275.778 11.2227C258.055 14.3354 171.689 33.3537 155.923 44.3607C147.643 50.0285 139.818 50.6609 131.507 51.3326C129.038 51.5321 126.527 51.735 123.948 52.0743C112.579 53.3671 101.358 56.5305 90.0886 59.7075C79.3561 62.7331 68.5803 65.771 57.5923 67.2168C46.3155 68.7851 35.6693 72.8175 25.0345 76.8455C21.1885 78.3022 17.344 79.7583 13.4718 81.0971C17.9189 80.8447 22.366 80.5923 26.4321 79.0975C18.4688 87.5549 10.6354 100.218 5.59059 114.409C6.2884 115.131 6.97732 115.864 7.66139 116.593C11.1416 120.299 14.4964 123.871 18.2564 125.066C16.61 126.193 15.102 127.629 13.5656 129.092C12.5967 130.015 11.6165 130.948 10.5832 131.822C11.456 134.227 11.4941 135.964 11.5348 137.82C11.5639 139.149 11.5944 140.539 11.9342 142.278C11.0173 142.789 10.3224 143.911 9.66295 144.976C9.11089 145.868 8.58371 146.719 7.97201 147.138C8.26387 147.384 8.63208 147.716 9.0478 148.09C10.6366 149.522 12.9194 151.579 14.2854 151.836C12.8787 153.717 11.3346 155.291 9.81805 156.838C8.8511 157.824 7.89529 158.798 6.99331 159.834C9.09011 164.179 12.1009 168.092 14.9628 171.812C22.095 181.082 28.3025 189.15 17.1344 199.707C18.3631 199.887 19.7405 200.955 21.0203 201.946C21.892 202.621 22.7184 203.262 23.4218 203.563C22.2732 204.349 21.3769 206.081 20.5109 207.754C19.8587 209.014 19.2238 210.24 18.5113 211.005C18.5265 211.497 28.3323 216.784 36.4556 221.163C42.1996 224.26 47.1025 226.903 47.1079 227.078C75.1045 227.168 101.997 215.983 128.838 204.821C142.411 199.176 155.97 193.537 169.653 189.364C222.936 177.634 261.883 167.891 293.032 160.098C318.43 153.745 338.642 148.688 357.213 144.909L357.82 3.23597Z" fill="#B97ACD"/>
</g>
<path d="M110.167 166.507C110.506 168.833 109.059 170.444 105.827 171.339C105.208 171.511 104.297 171.642 103.054 171.704C103.663 173.431 104.232 175.371 104.8 177.552C105.329 179.705 105.737 181.527 105.946 182.962C106.409 186.14 106.318 188.706 105.633 190.63C104.947 192.554 103.868 193.741 102.389 194.15C100.498 194.674 98.9365 193.534 97.7107 190.768C96.4849 188.003 95.4114 183.582 94.5247 177.496C93.7001 171.836 93.4144 165.946 93.6332 159.836C93.8863 153.717 94.6647 148.5 96.0025 144.177C97.3402 139.855 99.1554 137.335 101.425 136.706C102.663 136.363 103.716 136.717 104.585 137.767C105.453 138.817 106.04 140.388 106.345 142.482C107.35 149.382 104.772 157.96 98.6337 168.13C98.7765 171.075 99.0462 173.662 99.3625 175.833C99.803 178.856 100.358 181.929 100.999 185.099C101.634 188.23 102.18 189.772 102.593 189.658C103.384 189.439 103.542 187.822 103.096 184.76C102.763 182.472 102.297 180.262 101.712 178.206C101.126 176.151 100.414 173.968 99.6229 171.727C99.5321 171.349 99.5675 170.856 99.7522 170.159C99.9082 169.511 100.144 168.921 100.455 168.351C100.771 167.82 101.046 167.502 101.322 167.426C101.837 167.283 102.462 167.15 103.224 166.979C103.47 166.951 103.746 166.875 104.055 166.789C105.087 166.503 106.239 166.063 107.483 165.517C107.684 165.421 107.884 165.325 108.125 165.258C108.36 165.153 108.601 165.086 108.841 165.02C109.518 164.751 109.987 165.267 110.167 166.507ZM99.8738 144.476C99.4459 146.45 99.1084 149.044 98.8499 152.18C98.5914 155.317 98.4643 158.619 98.463 162.047C100.171 158.791 101.346 155.562 102.057 152.34C102.768 149.119 102.923 146.253 102.59 143.723C102.331 141.94 101.891 141.134 101.203 141.325C100.751 141.41 100.296 142.464 99.8738 144.476Z" fill="#FFF6E3"/>
<path d="M108.528 176.611C107.97 175.591 107.507 173.799 107.145 171.272C106.609 167.539 106.567 163.902 107.008 160.286C107.119 159.392 107.395 158.687 107.868 158.161C108.341 157.636 109.006 157.253 109.929 156.993C110.423 156.854 110.796 156.828 111.015 156.923C111.235 157.018 111.371 157.254 111.431 157.669C111.496 158.122 111.45 159.233 111.314 160.919C111.213 162.124 111.162 163.198 111.154 164.103C111.114 165.016 111.167 166.1 111.247 167.372C111.718 164.689 112.354 162.431 113.154 160.598C113.953 158.764 114.817 157.383 115.708 156.427C116.605 155.507 117.479 154.908 118.302 154.677C119.917 154.223 120.875 154.934 121.141 156.782C121.195 157.159 121.226 158.091 121.201 159.589C121.165 160.776 121.169 161.521 121.213 161.822C121.359 162.841 121.759 163.238 122.385 163.062C123.076 162.867 123.907 161.967 124.816 160.416C125.091 159.947 125.393 159.665 125.756 159.563C126.085 159.471 126.37 159.547 126.584 159.841C126.83 160.124 126.956 160.521 127.037 161.086C127.188 162.142 127.044 163.046 126.636 163.788C126.063 164.813 125.342 165.761 124.468 166.595C123.599 167.467 122.649 168.009 121.595 168.306C120.277 168.677 119.201 168.587 118.396 167.99C117.59 167.392 117.115 166.467 116.925 165.147C116.866 164.732 116.834 164.27 116.84 163.837C116.825 163.253 116.771 162.876 116.738 162.649C116.673 162.197 116.509 162.008 116.246 162.082C115.883 162.184 115.459 162.813 114.969 163.932C114.478 165.051 114.069 166.5 113.703 168.25C113.338 170.001 113.081 171.799 112.968 173.636C112.899 175.068 112.7 176.066 112.402 176.62C112.105 177.174 111.582 177.596 110.792 177.818C109.831 178.049 109.085 177.631 108.528 176.611Z" fill="#FFF6E3"/>
<path d="M142.794 155.969C143.013 156.3 143.177 156.724 143.263 157.327C143.458 158.685 143.215 159.616 142.528 160.083C141.1 161.113 139.501 161.915 137.733 162.491C137.619 165.034 136.939 167.225 135.761 169.047C134.584 170.868 133.078 172.076 131.299 172.577C129.784 173.003 128.473 172.94 127.267 172.416C126.094 171.884 125.113 171.022 124.353 169.785C123.599 168.585 123.119 167.151 122.891 165.568C122.578 163.381 122.664 161.357 123.145 159.457C123.626 157.556 124.425 155.959 125.569 154.617C126.718 153.313 128.065 152.425 129.613 151.99C131.523 151.452 133.146 151.78 134.549 152.954C135.918 154.138 136.875 155.791 137.391 157.959C138.566 157.55 139.907 156.86 141.483 155.906C141.67 155.775 141.835 155.729 141.999 155.683C142.285 155.524 142.576 155.638 142.794 155.969ZM132.854 166.217C133.338 165.296 133.582 164.129 133.58 162.679C132.703 162.298 131.996 161.673 131.46 160.804C130.924 159.935 130.548 158.982 130.391 157.889C130.326 157.437 130.294 156.975 130.295 156.504L130.097 156.56C129.109 156.838 128.334 157.644 127.832 158.923C127.33 160.201 127.222 161.839 127.515 163.875C127.742 165.459 128.178 166.591 128.857 167.263C129.503 167.944 130.189 168.182 130.913 167.979C131.731 167.709 132.369 167.138 132.854 166.217Z" fill="#FFF6E3"/>
<path d="M141.608 168.493C141.053 167.48 140.592 165.699 140.231 163.189C139.697 159.479 139.656 155.866 140.095 152.273C140.206 151.385 140.48 150.684 140.952 150.162C141.423 149.64 142.085 149.259 143.004 149.001C143.496 148.863 143.868 148.837 144.086 148.931C144.304 149.026 144.441 149.261 144.5 149.673C144.565 150.122 144.519 151.227 144.384 152.902C144.283 154.099 144.232 155.166 144.219 156.027C144.174 156.898 144.226 157.974 144.311 159.276C144.682 156.872 145.2 154.778 145.898 152.984C146.628 151.18 147.413 149.752 148.29 148.726C149.166 147.701 150.031 147.068 150.917 146.819C151.803 146.571 152.426 146.63 152.852 146.978C153.277 147.326 153.577 147.983 153.711 148.92C153.841 149.819 153.848 151.532 153.701 154.068C153.649 155.135 153.631 155.959 153.641 156.502C154.117 153.874 154.755 151.667 155.557 149.883C156.358 148.099 157.187 146.736 158.079 145.823C158.972 144.91 159.81 144.324 160.63 144.094C161.417 143.873 162.073 143.923 162.537 144.299C163.001 144.676 163.328 145.286 163.457 146.185C163.565 146.934 163.633 148.357 163.667 150.492C163.652 152.289 163.692 153.993 163.788 155.603C163.877 157.176 164.032 158.965 164.302 160.838C164.458 161.925 164.374 162.767 164.045 163.327C163.716 163.887 163.13 164.325 162.244 164.573C161.424 164.803 160.801 164.744 160.337 164.368C159.906 163.982 159.607 163.325 159.467 162.351C159.305 161.227 159.2 159.308 159.183 156.584C159.15 154.215 159.109 152.745 159.018 152.108C158.953 151.659 158.789 151.471 158.527 151.544C158.199 151.637 157.809 152.253 157.353 153.355C156.898 154.457 156.49 155.897 156.093 157.646C155.729 159.385 155.474 161.172 155.361 162.997C155.292 164.419 155.099 165.448 154.802 165.999C154.506 166.55 153.948 166.94 153.16 167.161C152.34 167.392 151.652 167.117 151.129 166.328C150.606 165.54 150.22 164.517 150.036 163.244C149.88 162.157 149.785 160.546 149.724 158.459C149.657 156.567 149.583 155.341 149.502 154.779C149.437 154.329 149.273 154.141 149.011 154.215C148.65 154.316 148.233 154.979 147.821 156.147C147.409 157.315 147.039 158.783 146.713 160.551C146.42 162.309 146.214 163.965 146.107 165.594C146.039 167.016 145.84 168.007 145.544 168.558C145.247 169.109 144.727 169.528 143.94 169.749C142.906 169.922 142.164 169.507 141.608 168.493Z" fill="#FFF6E3"/>
<path d="M179.482 158.653C177.242 157.775 175.919 155.805 175.487 152.789C175.257 151.186 175.315 149.899 175.695 148.919C176.041 147.948 176.714 147.321 177.646 147.059C178.313 146.871 178.906 146.903 179.4 147.2C179.893 147.498 180.164 147.938 180.257 148.587C180.339 149.16 180.377 149.665 180.376 150.142C180.392 150.256 180.386 150.457 180.397 150.771C180.407 151.086 180.418 151.401 180.462 151.706C180.648 153.004 181.356 153.837 182.61 154.119C183.869 154.44 185.512 154.295 187.577 153.713C189.743 153.104 191.343 152.177 192.45 150.952C193.523 149.736 193.976 148.298 193.751 146.733C193.609 145.741 193.222 144.976 192.552 144.411C191.881 143.845 191.1 143.469 190.196 143.208C189.297 142.984 188.044 142.702 186.413 142.446C184.354 142.112 182.64 141.761 181.293 141.307C179.945 140.852 178.765 140.112 177.668 138.992C176.611 137.9 175.937 136.342 175.647 134.319C175.346 132.22 175.583 130.247 176.314 128.334C177.044 126.421 178.263 124.767 179.97 123.373C181.671 121.941 183.776 120.912 186.241 120.218C188.074 119.702 189.816 119.529 191.475 119.737C193.095 119.916 194.465 120.523 195.584 121.558C196.697 122.555 197.354 123.998 197.623 125.868C197.885 127.7 197.849 129.14 197.481 130.197C197.146 131.244 196.478 131.908 195.546 132.171C194.879 132.359 194.313 132.28 193.781 131.953C193.282 131.617 192.967 131.11 192.88 130.499C192.803 129.965 192.76 129.421 192.761 128.945C192.701 128.048 192.658 127.504 192.625 127.275C192.45 126.054 191.786 125.288 190.66 124.93C189.534 124.572 188.191 124.632 186.659 125.064C184.493 125.673 182.893 126.601 181.858 127.845C180.824 129.089 180.443 130.546 180.679 132.188C180.837 133.295 181.274 134.164 181.983 134.759C182.698 135.392 183.524 135.834 184.494 136.077C185.47 136.358 186.791 136.622 188.494 136.897C190.557 137.269 192.205 137.639 193.475 138.035C194.745 138.432 195.886 139.143 196.861 140.14C197.875 141.165 198.493 142.579 198.756 144.411C199.248 147.846 198.488 150.76 196.49 153.268C194.488 155.738 191.587 157.508 187.789 158.577C184.491 159.506 181.722 159.531 179.482 158.653Z" fill="#FFF6E3"/>
<path d="M216.689 141.409C216.943 141.7 217.118 142.174 217.208 142.792C217.375 143.951 217.271 144.945 216.856 145.744C215.956 147.603 214.948 149.21 213.8 150.576C212.652 151.941 211.226 152.861 209.592 153.317C207.311 153.953 205.474 153.259 204.01 151.216C202.579 149.163 201.598 146.301 201.056 142.553C200.535 138.96 200.357 134.789 200.508 129.964C200.666 125.177 201.287 120.903 202.412 117.173C203.537 113.442 205.169 111.259 207.382 110.642C208.608 110.3 209.69 110.681 210.596 111.795C211.501 112.91 212.11 114.669 212.462 117.103C212.965 120.581 212.701 124.875 211.664 129.947C210.627 135.02 208.972 140.225 206.698 145.562C207.042 146.712 207.471 147.477 207.958 147.904C208.439 148.292 209.023 148.411 209.704 148.221C210.76 147.926 211.629 147.322 212.345 146.399C213.062 145.476 213.916 144.032 214.895 141.99C215.14 141.479 215.453 141.191 215.861 141.077C216.134 141.001 216.434 141.118 216.689 141.409ZM205.612 119.456C205.215 122.099 205.004 125.293 204.951 129.086C204.892 132.841 205.089 136.404 205.536 139.736C206.877 135.785 207.843 131.938 208.435 128.195C209.027 124.453 209.113 121.132 208.705 118.312C208.381 116.071 207.844 115.055 207.129 115.254C206.51 115.387 206.008 116.813 205.612 119.456Z" fill="#FFF6E3"/>
<path d="M215.106 150.15C214 149.128 213.296 147.562 212.998 145.49C212.668 143.191 212.821 140.914 213.446 138.582C214.076 136.288 215.056 134.288 216.425 132.609C217.794 130.931 219.316 129.836 221.061 129.345C221.62 129.188 221.999 129.199 222.234 129.407C222.464 129.578 222.661 129.993 222.885 130.597C223.395 130.335 223.944 130.103 224.504 129.945C225.722 129.602 226.418 129.916 226.564 130.934C226.651 131.537 226.659 133.024 226.621 135.387C226.532 138.822 226.565 141.204 226.749 142.485C226.809 142.9 226.961 143.249 227.159 143.428C227.394 143.637 227.641 143.685 227.937 143.601C228.398 143.472 228.942 142.966 229.498 142.065C230.087 141.154 230.813 139.774 231.739 137.867C231.975 137.37 232.278 137.089 232.673 136.977C233.002 136.885 233.293 136.999 233.506 137.292C233.752 137.576 233.888 138.047 233.975 138.65C234.137 139.78 234.036 140.749 233.634 141.529C232.825 143.285 231.911 144.797 230.905 146.138C229.898 147.479 228.849 148.284 227.795 148.581C226.972 148.812 226.166 148.686 225.383 148.24C224.599 147.794 223.948 147.075 223.457 146.038C222.519 148.81 221.045 150.479 219.07 151.035C217.56 151.498 216.217 151.21 215.106 150.15ZM221.254 144.775C221.64 143.883 221.862 142.801 221.914 141.493L222.161 133.191C221.113 133.525 220.223 134.246 219.458 135.363C218.693 136.479 218.17 137.842 217.848 139.422C217.527 141.002 217.48 142.583 217.712 144.203C217.842 145.108 218.099 145.702 218.455 146.033C218.81 146.364 219.304 146.461 219.831 146.312C220.358 146.164 220.836 145.677 221.254 144.775Z" fill="#FFF6E3"/>
<path d="M252.312 132.402C252.563 132.691 252.735 133.161 252.823 133.774C252.988 134.924 252.885 135.91 252.476 136.703C251.647 138.451 250.684 139.998 249.593 141.381C248.501 142.765 247.333 143.612 246.093 143.96C244.15 144.506 242.489 143.618 241.115 141.332C240.263 143.167 239.473 144.466 238.746 145.228C238.019 145.991 237.119 146.523 236.047 146.824C234.506 147.258 233.139 146.964 231.941 145.905C230.743 144.846 229.993 143.263 229.69 141.155C229.355 138.817 229.482 136.548 230.067 134.31C230.652 132.072 231.588 130.094 232.914 128.405C234.241 126.716 235.839 125.469 237.683 124.712C237.343 118.946 237.587 113.853 238.383 109.442C239.185 105.07 240.669 102.539 242.88 101.917C243.986 101.606 244.973 101.927 245.836 102.841C246.739 103.783 247.35 105.366 247.68 107.666C248.147 110.924 247.994 114.954 247.209 119.681C246.429 124.446 245.196 129.458 243.545 134.708C243.888 136.366 244.298 137.526 244.738 138.16C245.177 138.794 245.663 139.017 246.199 138.866C246.902 138.668 247.523 138.135 248.161 137.238C248.766 136.35 249.567 134.889 250.508 132.949C250.749 132.443 251.057 132.157 251.459 132.044C251.799 131.988 252.095 132.104 252.312 132.402ZM238.124 140.897C238.527 140.305 239.043 139.283 239.609 137.888C239.116 136.391 238.762 134.657 238.481 132.702C238.382 132.012 238.251 130.853 238.059 129.272C236.723 130.166 235.738 131.559 235.036 133.471C234.335 135.383 234.13 137.355 234.416 139.348C234.718 141.456 235.509 142.35 236.782 141.992C237.252 141.86 237.688 141.498 238.124 140.897ZM242.044 109.689C241.856 111.775 241.789 114.466 241.911 117.741C242.032 121.017 242.238 124.388 242.604 127.914C244.434 120.023 245.055 113.907 244.439 109.614C244.279 108.502 244.057 107.687 243.835 107.112C243.58 106.546 243.335 106.295 243.1 106.361C242.592 106.464 242.266 107.593 242.044 109.689Z" fill="#FFF6E3"/>
<path d="M252.917 141.489C251.734 140.951 250.806 140.024 250.079 138.803C249.351 137.582 248.867 136.135 248.643 134.574C248.327 132.366 248.414 130.322 248.866 128.412C249.351 126.493 250.123 124.89 251.21 123.554C252.303 122.256 253.627 121.368 255.155 120.938C256.65 120.517 257.972 120.58 259.16 121.156C260.343 121.694 261.304 122.612 262.032 123.832C262.76 125.053 263.244 126.501 263.467 128.062C263.784 130.27 263.697 132.314 263.211 134.233C262.726 136.152 261.921 137.765 260.834 139.101C259.708 140.408 258.417 141.286 256.889 141.717C255.394 142.138 254.067 142.036 252.917 141.489ZM258.574 134.668C259.019 133.433 259.094 131.788 258.8 129.733C258.571 128.134 258.136 127.029 257.518 126.332C256.905 125.673 256.247 125.422 255.516 125.628C254.619 125.881 253.932 126.629 253.487 127.863C253.042 129.097 252.966 130.742 253.266 132.836C253.501 134.473 253.941 135.616 254.554 136.275C255.161 136.896 255.853 137.137 256.617 136.922C257.48 136.679 258.134 135.94 258.574 134.668Z" fill="#FFF6E3"/>
<path d="M266.925 138.281C266.243 137.746 265.801 136.904 265.633 135.743C265.442 134.428 265.632 133.289 266.164 132.296C266.695 131.303 267.561 130.659 268.756 130.327C269.884 130.013 270.816 130.075 271.487 130.532C272.157 130.99 272.599 131.832 272.779 133.07C272.975 134.424 272.791 135.602 272.225 136.605C271.66 137.607 270.794 138.251 269.633 138.574C268.517 138.965 267.612 138.854 266.925 138.281ZM268.261 127.647C267.88 127.472 267.653 127.132 267.569 126.552L267.553 126.194C267.52 122.783 267.557 118.869 267.702 114.483C267.842 110.057 268.003 106.27 268.243 103.024C268.378 101.014 269.371 99.7722 271.215 99.2588C272.889 98.793 273.798 99.1837 273.972 100.383C274.012 100.654 274.017 100.934 273.999 101.301C273.77 104.624 273.426 108.624 272.939 113.347C272.451 118.07 271.953 122.233 271.434 125.758C271.295 126.763 270.68 127.417 269.621 127.712C269.103 127.815 268.642 127.823 268.261 127.647Z" fill="#FFF6E3"/>
<path d="M89.5858 109.483C88.3186 111.697 86.3127 113.565 83.5459 115.173C85.1733 115.229 86.4801 115.692 87.4331 116.57C88.3861 117.448 88.9688 118.628 89.176 120.071C89.5032 122.351 89.1575 124.503 88.1721 126.519C87.1535 128.544 85.5505 130.339 83.2637 131.93C81.0101 133.513 78.1943 134.779 74.8162 135.729C73.5577 136.083 72.5587 136.324 71.786 136.462C71.8674 137.27 71.6565 137.961 71.1535 138.537C70.6505 139.114 69.9161 139.518 69.0219 139.769C68.1277 140.021 67.4657 139.97 67.0691 139.607C66.6725 139.244 66.4087 138.607 66.3441 137.677C65.9979 133.585 65.8177 129.209 65.8476 124.616C65.8719 119.985 66.0892 115.498 66.4884 111.078C66.5504 110.31 66.8438 109.713 67.3301 109.26C67.8163 108.807 68.4955 108.498 69.3566 108.256C70.88 107.827 71.7457 108.098 71.8875 109.085C71.9474 109.503 71.9467 109.978 71.852 110.518C71.5114 112.946 71.2906 116.209 71.2121 120.223C71.1004 124.246 71.1658 128.061 71.4025 131.63C72.6111 131.409 73.6155 131.205 74.3772 130.991C77.8878 130.004 80.3893 128.708 81.8762 127.064C83.3631 125.421 83.9784 123.707 83.7167 121.883C83.5367 120.63 82.9148 119.659 81.8344 119.093C80.7486 118.489 79.1266 118.471 76.8913 118.981C76.3891 119.083 76.003 119.033 75.7715 118.861C75.5346 118.651 75.3753 118.261 75.2935 117.692C75.1736 116.856 75.2411 116.125 75.4628 115.51C75.6845 114.894 76.2093 114.47 76.9987 114.208C78.7762 113.63 80.3608 112.907 81.7031 111.937C83.084 110.995 84.0955 109.881 84.7817 108.66C85.4679 107.44 85.7294 106.141 85.5386 104.812C85.2986 103.14 84.3792 102.015 82.8188 101.466C81.2584 100.917 78.9685 101.047 76.0209 101.876C73.3383 102.631 70.7766 103.746 68.3741 105.252C65.9716 106.757 63.9938 108.341 62.3799 110.06C61.6614 110.815 61.0095 111.314 60.4465 111.473C59.9828 111.603 59.6244 111.506 59.3435 111.23C59.0626 110.953 58.8646 110.534 58.7828 109.965C58.6792 109.243 58.7244 108.598 58.9131 107.991C59.1017 107.385 59.6492 106.638 60.5777 105.666C62.501 103.702 64.8267 101.902 67.5327 100.351C70.2664 98.7519 73.1263 97.5524 76.0738 96.7235C80.6442 95.4382 84.1476 95.362 86.6505 96.4761C89.1203 97.5995 90.579 99.6001 90.9934 102.487C91.2761 104.937 90.8198 107.279 89.5858 109.483Z" fill="#FFF6E3"/>
<path d="M93.7714 129.797C92.6655 128.774 91.9607 127.207 91.6626 125.133C91.332 122.834 91.484 120.555 92.1076 118.223C92.7366 115.928 93.716 113.927 95.0843 112.249C96.4526 110.57 97.9733 109.477 99.718 108.987C100.278 108.83 100.656 108.841 100.891 109.049C101.121 109.22 101.318 109.636 101.542 110.24C102.052 109.979 102.601 109.746 103.161 109.589C104.379 109.247 105.074 109.561 105.221 110.579C105.308 111.183 105.316 112.671 105.279 115.034C105.191 118.471 105.225 120.854 105.41 122.136C105.469 122.551 105.622 122.9 105.819 123.08C106.055 123.288 106.301 123.337 106.598 123.254C107.059 123.124 107.602 122.619 108.158 121.717C108.746 120.807 109.472 119.426 110.397 117.519C110.633 117.022 110.935 116.741 111.33 116.63C111.659 116.537 111.95 116.652 112.163 116.945C112.41 117.229 112.546 117.7 112.633 118.304C112.795 119.435 112.695 120.404 112.293 121.184C111.484 122.941 110.571 124.452 109.566 125.793C108.56 127.135 107.511 127.939 106.458 128.235C105.635 128.466 104.829 128.339 104.045 127.893C103.262 127.446 102.611 126.726 102.119 125.688C101.182 128.461 99.7096 130.13 97.7345 130.684C96.1929 131.156 94.8828 130.858 93.7714 129.797ZM99.8838 124.433C100.269 123.54 100.49 122.458 100.542 121.15L100.786 112.844C99.7384 113.178 98.8488 113.898 98.0847 115.015C97.3205 116.132 96.7972 117.494 96.4765 119.075C96.1558 120.655 96.1093 122.237 96.3423 123.858C96.4724 124.763 96.7291 125.358 97.0849 125.689C97.4408 126.021 97.9342 126.118 98.4609 125.97C99.0259 125.85 99.4984 125.326 99.8838 124.433Z" fill="#FFF6E3"/>
<path d="M131.325 111.985C131.575 112.274 131.748 112.744 131.836 113.358C132.001 114.508 131.899 115.495 131.49 116.288C130.583 118.218 129.592 119.813 128.557 121.101C127.522 122.389 126.22 123.273 124.612 123.725C122.669 124.27 121 124.06 119.612 123.133C118.223 122.206 117.372 120.649 117.069 118.54C116.903 117.389 117.29 116.442 118.257 115.652C119.285 114.805 120.001 113.966 120.416 113.211C120.796 112.466 120.954 111.623 120.822 110.703C120.745 110.166 120.589 109.811 120.349 109.599C120.11 109.386 119.858 109.337 119.59 109.412C118.887 109.61 118.232 110.392 117.555 111.739C116.883 113.125 116.321 114.799 115.872 116.761C115.427 118.761 115.122 120.762 114.991 122.754C114.921 124.21 114.719 125.224 114.416 125.788C114.114 126.352 113.583 126.78 112.779 127.006C111.975 127.231 111.355 127.046 110.893 126.497C110.43 125.949 110.052 125.017 109.72 123.674C109.387 122.331 109.033 120.356 108.653 117.709C108.007 113.222 107.736 108.43 107.84 103.333C107.943 98.2365 108.531 93.8419 109.632 90.1015C110.732 86.3611 112.371 84.1853 114.549 83.5741C115.722 83.245 116.743 83.557 117.645 84.5007C118.548 85.4445 119.098 86.8462 119.363 88.6872C119.788 91.6405 119.487 94.8773 118.437 98.4838C117.381 102.052 115.47 106.459 112.693 111.627C112.847 113.18 113.034 114.724 113.266 116.335C113.948 112.353 114.974 109.311 116.312 107.22C117.65 105.129 119.008 103.91 120.382 103.524C121.655 103.167 122.732 103.383 123.68 104.155C124.594 104.936 125.172 106.05 125.382 107.508C125.614 109.119 125.455 110.68 124.944 112.219C124.434 113.759 123.365 115.296 121.805 116.811C122.021 117.589 122.411 118.118 123.019 118.466C123.621 118.775 124.263 118.875 125 118.668C125.804 118.442 126.492 117.89 127.13 116.993C127.768 116.096 128.568 114.634 129.543 112.685C129.784 112.178 130.091 111.892 130.493 111.779C130.812 111.57 131.102 111.649 131.325 111.985ZM113.181 90.7815C112.826 92.4371 112.582 94.6203 112.444 97.2927C112.272 99.9745 112.273 102.887 112.368 105.973C113.639 103.421 114.609 100.715 115.289 97.9306C115.97 95.1461 116.141 92.7038 115.849 90.671C115.716 89.7506 115.511 89.05 115.272 88.5985C115.033 88.1469 114.731 87.992 114.396 88.086C113.927 88.2177 113.535 89.1258 113.181 90.7815Z" fill="#FFF6E3"/>
<path d="M145.718 108.83C145.965 109.115 146.102 109.588 146.189 110.194C146.352 111.33 146.251 112.304 145.848 113.087C145.108 114.634 143.962 116.217 142.435 117.788C140.909 119.36 139.168 120.4 137.22 120.948C134.578 121.691 132.411 121.433 130.724 120.214C129.037 118.994 127.99 116.964 127.577 114.087C127.294 112.118 127.391 110.16 127.873 108.252C128.355 106.344 129.183 104.693 130.324 103.309C131.465 101.925 132.847 101.024 134.498 100.56C135.951 100.151 137.178 100.319 138.211 101.053C139.244 101.786 139.869 103.029 140.114 104.733C140.396 106.702 140.014 108.582 138.998 110.364C137.95 112.156 136.027 113.838 133.175 115.507C133.993 116.656 135.274 116.965 137.024 116.473C138.147 116.158 139.369 115.341 140.692 114.024C142.014 112.707 143.068 111.19 143.912 109.416C144.15 108.916 144.453 108.634 144.849 108.522C145.179 108.43 145.465 108.507 145.718 108.83ZM132.396 107.454C131.948 108.879 131.83 110.449 132.08 112.191L132.091 112.266C133.517 111.432 134.586 110.501 135.331 109.465C136.075 108.428 136.368 107.361 136.216 106.301C136.14 105.771 135.943 105.354 135.629 105.087C135.316 104.821 134.931 104.771 134.469 104.901C133.55 105.199 132.877 106.018 132.396 107.454Z" fill="#FFF6E3"/>
<path d="M157.94 112.443C158.096 112.799 158.218 113.164 158.279 113.586C158.467 114.891 157.856 115.742 156.446 116.137C155.641 116.363 155.003 116.302 154.529 115.916C154.02 115.539 153.519 114.721 152.951 113.443L152.889 113.26C152.115 114.915 151.375 116.081 150.669 116.759C149.963 117.436 149.09 117.921 148.084 118.203C146.54 118.636 145.17 118.341 143.97 117.28C142.769 116.218 142.017 114.632 141.713 112.52C141.376 110.178 141.503 107.905 142.088 105.664C142.674 103.423 143.616 101.481 144.944 99.7901C146.272 98.0994 147.84 96.8608 149.647 96.0744C149.327 90.4521 149.576 85.3892 150.361 80.895C151.151 76.4392 152.671 73.896 154.92 73.2653C156.027 72.9546 157.017 73.2764 157.882 74.1922C158.786 75.1369 159.398 76.7228 159.73 79.0264C160.188 82.2132 160.025 86.1736 159.268 90.8598C158.511 95.5459 157.334 100.47 155.704 105.64C156.326 108.022 157.071 110.29 157.94 112.443ZM150.173 112.344C150.583 111.79 151.065 110.776 151.621 109.302C151.049 107.265 150.627 105.067 150.301 102.801C150.169 101.88 150.069 101.189 150.031 100.68C148.688 101.536 147.701 102.931 146.999 104.846C146.33 106.751 146.126 108.726 146.419 110.761C146.723 112.873 147.515 113.769 148.791 113.411C149.3 113.308 149.77 112.937 150.173 112.344ZM153.955 84.7602C153.937 89.2393 154.146 94.0937 154.674 99.2183C156.488 91.4397 157.08 85.3619 156.45 80.9849C156.29 79.8714 156.067 79.055 155.845 78.4784C155.588 77.9111 155.343 77.6604 155.108 77.7263C154.369 77.9334 153.974 80.2811 153.955 84.7602Z" fill="#FFF6E3"/>
<path d="M197.57 91.8049C197.93 91.7045 198.246 91.7713 198.48 91.9772C198.719 92.2203 198.871 92.5653 198.941 93.0493C199.07 93.943 199.003 94.659 198.779 95.2252C198.555 95.7915 198.151 96.2917 197.595 96.6795C196.51 97.4086 195.332 97.9698 194.024 98.335C192.945 98.6363 191.872 98.7422 190.843 98.681C190.317 100.222 189.732 101.819 189.048 103.443C188.299 105.319 187.61 106.673 186.977 107.47C186.344 108.266 185.602 108.783 184.72 109.03C183.739 109.304 182.922 109.067 182.275 108.357C181.623 107.609 181.124 106.276 180.703 104.302L180.06 101.266C179.62 103.868 179.191 105.847 178.786 107.278C178.342 108.68 177.883 109.738 177.326 110.358C176.775 111.016 176.121 111.431 175.271 111.668C174.257 111.951 173.375 111.733 172.69 110.994C171.972 110.265 171.403 108.913 170.959 107.022C170.095 103.157 169.43 99.74 169 96.761L168.784 95.2715C168.682 94.3314 168.815 93.5972 169.191 93.1434C169.562 92.6524 170.157 92.2927 171.007 92.0554C171.661 91.8728 172.14 91.8939 172.515 92.1377C172.891 92.3816 173.097 92.8664 173.21 93.6483C173.678 96.888 174.455 101.087 175.569 106.2C176.682 101.667 177.61 97.0297 178.386 92.2804C178.524 91.3509 178.77 90.701 179.12 90.2936C179.469 89.8861 179.905 89.6093 180.461 89.4541C181.148 89.2624 181.627 89.2835 181.932 89.5084C182.236 89.7333 182.448 90.2553 182.561 91.0373C183.029 94.2769 183.806 98.4764 184.92 103.589C186.057 100.637 186.884 98.3531 187.415 96.6164C186.937 95.8976 186.601 94.9842 186.434 93.8298C186.294 92.8617 186.356 91.8759 186.586 90.8818C186.817 89.8877 187.232 88.9969 187.805 88.2557C188.378 87.5146 189.055 87.0158 189.872 86.7876C190.591 86.5868 191.223 86.7203 191.761 87.1511C192.305 87.619 192.62 88.3835 192.781 89.5006C192.964 90.7666 192.88 92.3011 192.528 94.1039C193.466 93.7647 194.681 93.2315 196.197 92.4209L197.178 91.9145C197.276 91.8871 197.374 91.8597 197.57 91.8049Z" fill="#FFF6E3"/>
<path d="M197.56 104.18C196.62 103.038 195.957 101.377 195.633 99.1397C195.444 97.8283 195.334 96.0932 195.338 93.9252C195.341 91.7571 195.441 89.763 195.653 87.8177C195.756 86.8258 195.966 86.0849 196.288 85.6337C196.611 85.1825 197.226 84.81 198.073 84.5736C199.394 84.2047 200.11 84.5265 200.255 85.5294C200.361 86.2623 200.369 88.0257 200.246 90.8291C200.105 94.2394 200.112 96.4846 200.28 97.6418C200.408 98.529 200.604 99.1564 200.874 99.5625C201.144 99.9686 201.517 100.106 202.025 99.9637C202.499 99.8313 203.019 99.2848 203.596 98.4013C204.201 97.4698 204.948 96.0573 205.871 94.1542C206.115 93.6448 206.426 93.3574 206.832 93.2439C207.171 93.1493 207.469 93.2665 207.689 93.5664C207.942 93.8568 208.116 94.3299 208.206 94.9471C208.373 96.1043 208.27 97.0963 207.856 97.8939C205.829 102.152 203.715 104.588 201.48 105.212C199.854 105.666 198.534 105.312 197.56 104.18ZM195.844 81.3434C195.219 80.9161 194.836 80.2203 194.686 79.1789C194.535 78.1374 194.751 77.1942 195.362 76.3013C195.973 75.4084 196.803 74.8153 197.853 74.5222C198.802 74.2574 199.62 74.3098 200.273 74.6891C200.927 75.0683 201.338 75.7161 201.477 76.6805C201.645 77.8376 201.44 78.858 200.863 79.7414C200.286 80.6249 199.455 81.2179 198.338 81.53C197.322 81.8137 196.47 81.7707 195.844 81.3434Z" fill="#FFF6E3"/>
<path d="M222.075 89.7936C222.326 90.0828 222.499 90.5538 222.587 91.1684C222.753 92.3207 222.651 93.3084 222.241 94.1026C221.354 95.9498 220.361 97.5469 219.195 98.9128C218.028 100.279 216.623 101.192 214.943 101.663C209.737 103.123 206.549 99.6613 205.343 91.2881C205.161 90.0205 205.006 88.7052 204.885 87.3805L203.407 87.7948C202.635 88.0114 202.109 87.999 201.791 87.7287C201.478 87.4967 201.266 86.9967 201.166 86.3053C200.929 84.6537 201.383 83.687 202.525 83.3668L204.709 82.7547C204.681 79.4059 204.932 76.2985 205.424 73.4034C205.949 70.4989 206.72 68.0851 207.736 66.1618C208.785 64.2292 210.012 63.0459 211.457 62.641C212.531 62.3396 213.448 62.6419 214.208 63.5479C214.967 64.4539 215.463 65.7135 215.701 67.3651C216.353 71.8974 215.272 76.2765 212.433 80.5888L216.732 79.3834C217.135 79.2704 217.454 79.3009 217.65 79.4459C217.845 79.5908 218.001 79.9467 218.084 80.5229C218.372 82.5201 217.077 83.9622 214.189 84.772L209.52 86.0809C209.697 87.5499 209.829 88.7116 209.945 89.5182C210.382 92.5525 210.988 94.5803 211.804 95.6304C212.619 96.6806 213.681 97.0221 215.024 96.6455C216.133 96.3347 217.018 95.6869 217.781 94.6739C218.51 93.6703 219.357 92.2739 220.278 90.4174C220.519 89.9101 220.827 89.6239 221.23 89.5109C221.561 89.3783 221.852 89.4566 222.075 89.7936ZM210.013 69.1196C209.703 70.3653 209.483 71.9857 209.322 74.0286C209.168 76.1099 209.136 78.3165 209.21 80.7732C210.506 78.8515 211.376 76.8892 211.884 74.8289C212.357 72.7781 212.517 70.9751 212.296 69.4387C212.047 67.7103 211.656 66.9406 211.085 67.1007C210.649 67.2231 210.323 67.8739 210.013 69.1196Z" fill="#FFF6E3"/>
<path d="M232.54 76.4586C233.021 76.8471 233.359 77.4761 233.493 78.4031C233.605 79.1756 233.676 80.6426 233.678 82.8522C233.664 84.7047 233.706 86.461 233.805 88.1211C233.865 89.7521 234.06 91.5864 234.339 93.5177C234.502 94.6378 234.415 95.5057 234.075 96.0829C233.734 96.66 233.127 97.1103 232.21 97.366C231.361 97.6028 230.715 97.5414 230.235 97.153C229.788 96.755 229.478 96.078 229.333 95.0738C229.165 93.915 229.055 91.9364 229.037 89.1285C229.002 86.6871 228.959 85.172 228.864 84.5154C228.797 84.0519 228.627 83.858 228.356 83.9337C228.016 84.0284 227.613 84.6632 227.141 85.7992C226.669 86.9353 226.214 88.4285 225.837 90.2212C225.461 92.0139 225.197 93.8555 225.081 95.7364C225.01 97.2026 224.805 98.2244 224.498 98.792C224.191 99.3597 223.653 99.791 222.838 100.018C222.022 100.246 221.394 100.059 220.925 99.5065C220.456 98.954 220.073 98.0161 219.736 96.6635C219.398 95.3108 219.039 93.3212 218.653 90.6561C217.999 86.137 217.724 81.3111 217.829 76.1785C217.934 71.0458 218.53 66.6201 219.646 62.8533C220.762 59.0864 222.424 56.8952 224.633 56.2797C225.822 55.9482 226.858 56.2625 227.773 57.2129C228.688 58.1633 229.246 59.575 229.515 61.429C229.946 64.4031 229.64 67.6629 228.575 71.2949C227.505 74.8883 225.567 79.3262 222.751 84.5314C222.907 86.0953 223.096 87.6498 223.331 89.2721C223.817 86.5247 224.478 84.251 225.302 82.3739C226.126 80.4967 226.983 79.0924 227.907 78.1517C228.831 77.211 229.732 76.5982 230.582 76.3615C231.38 76.0183 232.06 76.0701 232.54 76.4586ZM223.239 63.4994C222.88 65.1668 222.633 67.3654 222.492 70.0567C222.318 72.7575 222.319 75.6907 222.415 78.7982C223.705 76.2287 224.688 73.5033 225.378 70.6991C226.068 67.8949 226.242 65.4353 225.945 63.3882C225.811 62.4612 225.603 61.7557 225.36 61.301C225.118 60.8462 224.812 60.6902 224.472 60.7849C223.997 60.9175 223.599 61.832 223.239 63.4994Z" fill="#FFF6E3"/>
<path d="M261.561 80.2101C261.816 80.5011 261.991 80.975 262.081 81.5933C262.249 82.7527 262.145 83.7465 261.73 84.5456C260.831 86.4041 259.825 88.0111 258.678 89.3759C257.53 90.7408 256.106 91.6601 254.473 92.1148C252.193 92.7497 250.358 92.0545 248.893 90.0098C247.463 87.9556 246.481 85.0929 245.938 81.3442C245.417 77.7502 245.237 73.5787 245.387 68.7525C245.542 63.9649 246.162 59.6914 247.285 55.9612C248.408 52.231 250.038 50.0481 252.25 49.4323C253.475 49.0912 254.557 49.4733 255.462 50.5883C256.367 51.7033 256.976 53.4636 257.329 55.8983C257.833 59.3764 257.571 63.671 256.536 68.7436C255.502 73.8162 253.849 79.0207 251.578 84.357C251.922 85.5077 252.352 86.2726 252.838 86.6999C253.319 87.0886 253.903 87.2075 254.584 87.018C255.638 86.7243 256.507 86.1207 257.222 85.1977C257.938 84.2747 258.791 82.831 259.769 80.7895C260.014 80.2791 260.326 79.9912 260.734 79.8775C261.007 79.8017 261.301 79.8805 261.561 80.2101ZM250.484 58.2467C250.088 60.8898 249.878 64.0842 249.827 67.878C249.769 71.6331 249.967 75.1965 250.415 78.5295C251.754 74.5784 252.718 70.7315 253.308 66.9889C253.899 63.2462 253.984 59.9257 253.575 57.1045C253.25 54.8631 252.713 53.8466 251.999 54.0456C251.38 54.1775 250.879 55.6036 250.484 58.2467Z" fill="#FFF6E3"/>
<path d="M277.779 72.6178C277.998 72.9488 278.161 73.3736 278.248 73.9771C278.443 75.335 278.2 76.2666 277.514 76.7341C276.086 77.763 274.488 78.5648 272.721 79.1396C272.607 81.6831 271.929 83.8749 270.752 85.6967C269.575 87.5184 268.07 88.7259 266.291 89.2253C264.777 89.6507 263.466 89.5872 262.26 89.0625C261.087 88.5286 260.106 87.666 259.346 86.4276C258.591 85.2269 258.111 83.7921 257.883 82.2079C257.569 80.0202 257.654 77.9949 258.135 76.094C258.615 74.1932 259.413 72.5956 260.557 71.2543C261.705 69.9507 263.051 69.0626 264.598 68.628C266.508 68.0916 268.131 68.4206 269.534 69.5965C270.903 70.7816 271.86 72.4356 272.378 74.6055C273.552 74.1972 274.892 73.5071 276.468 72.5543C276.655 72.4234 276.819 72.3771 276.984 72.3309C277.269 72.1722 277.527 72.2961 277.779 72.6178ZM267.811 82.8731C268.295 81.9523 268.538 80.7852 268.535 79.3341C267.658 78.9525 266.952 78.3269 266.416 77.4572C265.879 76.5875 265.503 75.6338 265.345 74.5399C265.28 74.0873 265.248 73.6254 265.249 73.1543L265.051 73.2098C264.064 73.4872 263.289 74.2934 262.787 75.5722C262.286 76.851 262.179 78.49 262.472 80.5268C262.7 82.111 263.136 83.244 263.816 83.9167C264.462 84.5985 265.147 84.8377 265.871 84.6343C266.689 84.3654 267.359 83.7847 267.811 82.8731Z" fill="#FFF6E3"/>
<path d="M293.59 68.2982C293.952 68.1964 294.27 68.2641 294.506 68.4729C294.747 68.7194 294.9 69.0692 294.971 69.56C295.101 70.4662 295.067 71.1829 294.808 71.7663C294.582 72.3404 294.175 72.8476 293.614 73.2408C292.521 73.9801 291.334 74.5491 290.016 74.9194C288.928 75.2249 287.847 75.3324 286.809 75.2703C286.28 76.8332 285.69 78.4523 285.001 80.0992C284.245 82.0005 283.519 83.3831 282.88 84.1909C282.242 84.9986 281.462 85.5321 280.539 85.7913C279.518 86.0783 278.629 85.8567 277.938 85.1079C277.215 84.3683 276.641 82.9976 276.194 81.0806C275.322 77.1616 274.653 73.6965 274.219 70.6759L274.002 69.1657C273.899 68.2125 274.032 67.4681 274.412 67.0079C274.786 66.51 275.385 66.1454 276.242 65.9047C276.901 65.7196 277.384 65.741 277.762 65.9882C278.108 66.2447 278.348 66.727 278.462 67.5199C278.934 70.8048 279.717 75.0628 280.84 80.2469C281.986 77.2536 282.819 74.9378 283.355 73.1768C282.873 72.448 282.534 71.5219 282.366 70.3514C282.225 69.3697 282.287 68.3702 282.519 67.3622C282.751 66.3543 283.17 65.451 283.748 64.6995C284.325 63.948 285.007 63.4424 285.831 63.2109C286.556 63.0073 287.192 63.1427 287.735 63.5794C288.283 64.054 288.633 64.8198 288.796 65.9525C288.98 67.2362 288.895 68.7921 288.541 70.62C289.486 70.2761 290.711 69.7355 292.238 68.9136L293.227 68.4001C293.293 68.3816 293.425 68.3445 293.59 68.2982Z" fill="#FFF6E3"/>
<path d="M306.171 70.7932C306.42 71.0799 306.59 71.547 306.678 72.1563C306.826 73.1845 306.758 74.1544 306.435 75.0374C305.918 76.4901 305.126 77.7036 304.062 78.7158C302.998 79.7281 301.686 80.4535 300.093 80.9017C297.669 81.5832 295.69 81.2683 294.088 79.9756C292.519 78.6735 291.533 76.6134 291.128 73.7954C290.844 71.8152 290.942 69.8465 291.426 67.9275C291.91 66.0084 292.743 64.3481 293.89 62.9558C295.037 61.5635 296.427 60.6576 298.087 60.1908C299.548 59.78 300.781 59.9483 301.819 60.6863C302.858 61.4243 303.486 62.6739 303.732 64.3875C304.016 66.3678 303.632 68.2588 302.611 70.0513C301.557 71.8531 299.591 73.555 296.723 75.2331C297.512 76.3979 298.634 76.7558 300.062 76.3543C301.091 76.0649 301.916 75.5556 302.498 74.7977C303.085 74.0778 303.712 72.911 304.423 71.3642C304.661 70.8613 304.961 70.5395 305.359 70.4274C305.63 70.3908 305.923 70.5065 306.171 70.7932ZM295.913 67.1808C295.462 68.6149 295.343 70.1934 295.595 71.9451L295.606 72.0213C297.04 71.1822 298.114 70.2462 298.863 69.2037C299.611 68.1613 299.906 67.0879 299.753 66.0216C299.676 65.4885 299.478 65.0689 299.163 64.8008C298.848 64.5328 298.461 64.4832 297.996 64.6139C297.072 64.9134 296.396 65.7374 295.913 67.1808Z" fill="#FFF6E3"/>
<path d="M310.194 85.3537C309.813 85.1402 309.578 84.7255 309.489 84.1097C309.45 83.8403 309.439 83.523 309.457 83.1577C309.532 81.7352 309.591 80.4375 309.559 79.2451C309.527 78.0528 309.412 76.7638 309.212 75.3782C309.001 73.9157 309.143 72.7147 309.634 71.7366C310.124 70.7585 310.844 70.1566 311.788 69.8924C312.698 69.6376 313.444 69.7089 314 70.1541C314.555 70.5993 314.902 71.303 315.041 72.2652C315.19 73.3043 315.115 74.7269 314.82 76.5713C314.525 78.4157 314.123 80.25 313.581 82.0835C313.23 83.3027 312.931 84.1471 312.678 84.5785C312.424 85.0098 312.081 85.306 311.576 85.4475C311.036 85.5985 310.576 85.5672 310.194 85.3537Z" fill="#FFF6E3"/>
<defs>
<filter id="filter0_d_722_252" x="0.590576" y="0.235962" width="362.229" height="233.842" filterUnits="userSpaceOnUse" color-interpolation-filters="sRGB">
<feFlood flood-opacity="0" result="BackgroundImageFix"/>
<feColorMatrix in="SourceAlpha" type="matrix" values="0 0 0 0 0 0 0 0 0 0 0 0 0 0 0 0 0 0 127 0" result="hardAlpha"/>
<feOffset dy="2"/>
<feGaussianBlur stdDeviation="2.5"/>
<feComposite in2="hardAlpha" operator="out"/>
<feColorMatrix type="matrix" values="0 0 0 0 0 0 0 0 0 0 0 0 0 0 0 0 0 0 0.15 0"/>
<feBlend mode="multiply" in2="BackgroundImageFix" result="effect1_dropShadow_722_252"/>
<feBlend mode="normal" in="SourceGraphic" in2="effect1_dropShadow_722_252" result="shape"/>
</filter>
</defs>
</svg>
