<svg width="205" height="139" viewBox="0 0 205 139" fill="none" xmlns="http://www.w3.org/2000/svg">
<g id="logo">
<g id="Group">
<g id="Group_2">
<g id="Group_3">
<path id="Vector" d="M102.128 9.10437C110.589 9.10437 118.984 10.4925 127.115 13.2028L180.064 31.1831C187.402 33.695 192.359 40.5698 192.359 48.3701V83.6695C192.359 91.4698 187.402 98.3446 180.064 100.857L127.115 118.903C118.984 121.679 110.589 123.001 102.128 123.001C93.6664 123.001 85.2712 121.613 77.1404 118.903L24.1912 100.923C16.8537 98.4107 11.8959 91.5359 11.8959 83.7356V48.3701C11.8959 40.5698 16.8537 33.695 24.1912 31.1831L77.1404 13.2028C85.2712 10.4264 93.6664 9.10437 102.128 9.10437ZM102.128 3.41943C93.0053 3.41943 83.9491 4.93982 75.3556 7.84839L22.3403 25.8286C12.6891 29.1338 6.21094 38.1901 6.21094 48.3701V83.6695C6.21094 93.8495 12.6891 102.906 22.3403 106.211L75.2895 124.191C83.9491 127.1 92.9392 128.62 102.062 128.62C111.184 128.62 120.24 127.1 128.834 124.191L181.783 106.211C191.434 102.906 197.912 93.8495 197.912 83.6695V48.3701C197.912 38.1901 191.434 29.1338 181.783 25.8286L128.9 7.84839C120.306 4.87372 111.25 3.41943 102.128 3.41943Z" fill="white"/>
</g>
<g id="Group_4">
<g id="Vector_2" filter="url(#filter0_dd_1_3118)">
<path d="M102.13 130.735C92.7433 130.735 83.5548 129.215 74.6969 126.174L21.7477 108.194C11.2372 104.624 4.16406 94.7749 4.16406 83.6694V48.37C4.16406 37.2645 11.2372 27.415 21.6816 23.9115L74.6308 5.93128C83.5548 2.89051 92.7433 1.37012 102.13 1.37012C111.517 1.37012 120.705 2.89051 129.563 5.93128L182.512 23.9115C193.023 27.4811 200.03 37.3306 200.03 48.37V83.6694C200.03 94.7749 192.957 104.624 182.512 108.128L129.563 126.108C120.705 129.215 111.517 130.735 102.13 130.735ZM102.13 5.46856C93.206 5.46856 84.4142 6.92284 76.019 9.76531L23.0037 27.7456C14.2119 30.7863 8.2625 39.0493 8.2625 48.37V83.6694C8.2625 92.9901 14.2119 101.253 23.0037 104.294L75.9529 122.274C84.4142 125.117 93.206 126.571 102.064 126.571C110.988 126.571 119.78 125.117 128.175 122.274L181.124 104.294C189.982 101.319 195.865 92.9901 195.865 83.6694V48.37C195.865 39.0493 189.916 30.7863 181.124 27.7456L128.175 9.76531C119.846 6.92284 111.054 5.46856 102.13 5.46856ZM102.13 125.05C93.4043 125.05 84.7447 123.596 76.4817 120.82L23.5325 102.84C15.3356 100.063 9.849 92.3952 9.849 83.7355V48.37C9.849 39.7104 15.3356 32.0423 23.5325 29.266L76.4817 11.2857C84.7447 8.44323 93.4043 7.05505 102.13 7.05505C110.856 7.05505 119.515 8.50934 127.778 11.2857L180.728 29.266C188.924 32.0423 194.411 39.7104 194.411 48.37V83.6694C194.411 92.329 188.924 99.9971 180.728 102.773L127.778 120.82C119.515 123.596 110.856 125.05 102.13 125.05ZM102.13 11.0874C93.867 11.0874 85.6701 12.4095 77.8038 15.1197L24.8546 33.1C18.3103 35.3475 13.9474 41.4291 13.9474 48.37V83.6694C13.9474 90.5442 18.3103 96.6919 24.8546 98.9394L77.8038 116.92C85.6701 119.564 93.867 120.952 102.13 120.952C110.393 120.952 118.59 119.63 126.456 116.92L179.405 98.9394C185.95 96.6919 190.313 90.6104 190.313 83.6694V48.37C190.313 41.4952 185.95 35.3475 179.405 33.1L126.456 15.1197C118.59 12.4756 110.393 11.0874 102.13 11.0874Z" fill="white"/>
</g>
</g>
</g>
<g id="Group_5">
<path id="Vector_3" fill-rule="evenodd" clip-rule="evenodd" d="M102.129 125.844C93.3371 125.844 84.6114 124.39 76.2162 121.547L23.267 103.567C14.7396 100.658 9.05469 92.6597 9.05469 83.6695V48.3701C9.05469 39.3799 14.8057 31.3814 23.267 28.4728L76.2162 10.4926C84.5453 7.65009 93.271 6.1958 102.129 6.1958C110.921 6.1958 119.646 7.65009 128.042 10.4926L180.991 28.4728C189.518 31.3814 195.203 39.3799 195.203 48.3701V83.6695C195.203 92.6597 189.452 100.658 180.991 103.567L128.042 121.547C119.646 124.39 110.987 125.844 102.129 125.844Z" fill="#EB0029"/>
</g>
<g id="Group_6">
<path id="Vector_4" d="M102.128 9.10437C110.589 9.10437 118.984 10.4925 127.115 13.2028L180.064 31.1831C187.402 33.695 192.359 40.5698 192.359 48.3701V83.6695C192.359 91.4698 187.402 98.3446 180.064 100.857L127.115 118.903C118.984 121.679 110.589 123.001 102.128 123.001C93.6664 123.001 85.2712 121.613 77.1404 118.903L24.1912 100.923C16.8537 98.4107 11.8959 91.5359 11.8959 83.7356V48.3701C11.8959 40.5698 16.8537 33.695 24.1912 31.1831L77.1404 13.2028C85.2712 10.4264 93.6664 9.10437 102.128 9.10437ZM102.128 3.41943C93.0053 3.41943 83.9491 4.93982 75.3556 7.84839L22.3403 25.8286C12.6891 29.1338 6.21094 38.1901 6.21094 48.3701V83.6695C6.21094 93.8495 12.6891 102.906 22.3403 106.211L75.2895 124.191C83.9491 127.1 92.9392 128.62 102.062 128.62C111.184 128.62 120.24 127.1 128.834 124.191L181.783 106.211C191.434 102.906 197.912 93.8495 197.912 83.6695V48.3701C197.912 38.1901 191.434 29.1338 181.783 25.8286L128.9 7.84839C120.306 4.87372 111.25 3.41943 102.128 3.41943Z" fill="white"/>
</g>
<g id="Group_7">
<path id="Vector_5" d="M102.131 126.24C93.2728 126.24 84.481 124.786 76.0858 121.943L23.1366 103.963C14.477 100.988 8.59375 92.8576 8.59375 83.6692V48.3697C8.59375 39.1813 14.4109 31.0505 23.1366 28.0758L76.0858 10.0956C84.481 7.25311 93.2728 5.79883 102.131 5.79883C110.989 5.79883 119.78 7.25311 128.176 10.0956L181.125 28.0758C189.784 31.0505 195.668 39.1813 195.668 48.3697V83.6692C195.668 92.8576 189.851 100.988 181.125 103.963L128.176 121.943C119.78 124.852 110.989 126.24 102.131 126.24ZM102.131 6.65818C93.3389 6.65818 84.6793 8.11246 76.3502 10.8888L23.401 28.9352C15.0719 31.7776 9.4531 39.5779 9.4531 48.3697V83.6692C9.4531 92.461 15.0719 100.327 23.401 103.104L76.3502 121.084C84.6793 123.926 93.3389 125.315 102.131 125.315C110.923 125.315 119.582 123.86 127.911 121.084L180.86 103.104C189.189 100.261 194.808 92.461 194.808 83.6692V48.3697C194.808 39.5779 189.189 31.7115 180.86 28.9352L127.911 10.9549C119.582 8.11246 110.923 6.65818 102.131 6.65818Z" fill="#F9E0A4"/>
</g>
<g id="Group_8">
<path id="Vector_6" d="M66.0391 104.492L66.5018 103.963C67.0967 104.558 67.89 104.889 68.7493 104.889C69.8731 104.889 70.6002 104.426 70.6002 103.699C70.6002 103.104 70.2036 102.774 68.8154 102.377C67.1628 101.914 66.3696 101.452 66.3696 100.394C66.3696 99.2701 67.3611 98.543 68.8154 98.543C69.6748 98.543 70.5341 98.8074 71.1952 99.3362L70.7324 99.9312C70.2036 99.4684 69.4765 99.204 68.7493 99.204C67.6917 99.204 67.0967 99.6667 67.0967 100.328C67.0967 100.923 67.5595 101.253 68.9476 101.65C70.7324 102.113 71.3274 102.708 71.3274 103.633C71.3274 104.823 70.2697 105.616 68.6832 105.616C67.6917 105.55 66.7662 105.153 66.0391 104.492Z" fill="#F9E0A4"/>
</g>
<g id="Group_9">
<path id="Vector_7" d="M75.6256 98.543H74.8984V105.418H75.6256V98.543Z" fill="#F9E0A4"/>
</g>
<g id="Group_10">
<path id="Vector_8" d="M85.2757 98.543V105.418H84.5485L80.5162 99.6667V105.418H79.7891V98.543H80.5823L84.6146 104.294V98.543H85.2757Z" fill="#F9E0A4"/>
</g>
<g id="Group_11">
<path id="Vector_9" d="M88.9062 101.98C88.9062 99.9308 90.2283 98.4766 92.0792 98.4766C93.4674 98.4766 94.459 99.2037 94.8556 100.526L94.1285 100.79C93.7979 99.7325 93.0708 99.1376 92.0131 99.1376C90.5588 99.1376 89.6334 100.261 89.6334 101.98C89.6334 103.699 90.6249 104.823 92.0131 104.823C93.0708 104.823 93.7979 104.294 94.1285 103.17L94.8556 103.434C94.459 104.69 93.4674 105.484 92.0792 105.484C90.1622 105.55 88.9062 104.095 88.9062 101.98Z" fill="#F9E0A4"/>
</g>
<g id="Group_12">
<path id="Vector_10" d="M102.854 104.757V105.418H98.2266V98.543H102.722V99.2701H99.0198V101.584H101.928V102.245H99.0198V104.757H102.854Z" fill="#F9E0A4"/>
</g>
<g id="Group_13">
<path id="Vector_11" d="M114.756 104.756V105.417H110.062V104.955L112.376 102.773C113.368 101.914 113.83 101.187 113.83 100.46C113.83 99.6664 113.302 99.0715 112.442 99.0715C111.451 99.0715 110.856 99.6664 110.79 100.724L110.129 100.592C110.261 99.2698 111.186 98.4766 112.508 98.4766C113.764 98.4766 114.624 99.2698 114.624 100.46C114.624 101.319 114.095 102.112 112.839 103.236L111.252 104.756H114.756Z" fill="#F9E0A4"/>
</g>
<g id="Group_14">
<path id="Vector_12" d="M117.402 101.98C117.402 99.8647 118.46 98.4766 120.113 98.4766C121.699 98.4766 122.823 99.8647 122.823 101.98C122.823 104.095 121.765 105.484 120.113 105.484C118.46 105.55 117.402 104.095 117.402 101.98ZM122.03 101.98C122.03 100.195 121.236 99.0715 120.113 99.0715C118.923 99.0715 118.196 100.195 118.196 101.98C118.196 103.765 118.989 104.889 120.113 104.889C121.236 104.889 122.03 103.765 122.03 101.98Z" fill="#F9E0A4"/>
</g>
<g id="Group_15">
<path id="Vector_13" d="M127.121 100.262H125.469V99.6667H125.733C126.989 99.6667 127.32 99.4023 127.386 98.543H127.848V105.418H127.121V100.262Z" fill="#F9E0A4"/>
</g>
<g id="Group_16">
<path id="Vector_14" d="M136.567 103.236C136.567 104.558 135.509 105.484 134.187 105.484C132.469 105.484 131.609 103.963 131.609 101.98C131.609 99.9971 132.535 98.4106 134.386 98.4106C135.245 98.4106 135.972 98.7412 136.435 99.4022L135.972 99.8649C135.576 99.3361 135.047 99.0717 134.386 99.0717C132.998 99.0717 132.27 100.394 132.27 101.98V102.245C132.667 101.451 133.394 101.055 134.32 101.055C135.576 101.055 136.567 101.914 136.567 103.236ZM135.84 103.302C135.84 102.311 135.113 101.716 134.187 101.716C133.262 101.716 132.535 102.377 132.535 103.302C132.535 104.228 133.262 104.889 134.187 104.889C135.113 104.889 135.84 104.228 135.84 103.302Z" fill="#F9E0A4"/>
</g>
<g id="Group_17">
<g id="Group_18">
<path id="Vector_15" d="M110.859 40.1069C110.595 40.1069 110.33 40.1069 110.132 40.1069H110.066C108.678 40.0408 105.901 39.578 104.778 39.2475C103.72 38.917 101.737 38.8509 100.282 39.0492C97.6383 39.4458 94.928 38.4543 93.8704 37.7932C93.6721 37.661 93.6721 37.4627 93.7382 37.2644C93.8704 37.0661 94.0687 37.0661 94.267 37.1322C94.928 37.5288 97.44 38.6526 100.216 38.256C101.803 37.9915 103.852 38.1237 105.042 38.4543C106.1 38.7848 108.81 39.2475 110.132 39.2475H110.198C111.123 39.2475 112.974 39.3136 113.702 38.5865C113.966 38.3221 114.098 37.9915 114.098 37.5949C114.098 36.0745 112.247 35.6779 109.801 35.4135C109.537 35.4135 109.339 35.3474 109.14 35.3474C108.612 35.2813 108.149 35.2152 107.554 35.1491C105.769 35.0169 103.786 34.8186 101.671 33.6287C101.274 33.4304 100.943 33.2321 100.613 33.0337C98.696 31.91 97.5061 31.2489 94.3992 30.7862C90.8957 30.2574 84.5497 33.827 84.1531 34.0253C83.9548 34.1575 82.5666 35.0169 79.5919 35.2152C79.3936 35.2152 79.1953 35.083 79.1953 34.8847C79.1953 34.6863 79.3275 34.488 79.5258 34.488C82.4344 34.2897 83.6904 33.4304 83.6904 33.4304C83.6904 33.4304 83.6904 33.4304 83.7565 33.4304C84.0209 33.2982 90.6313 29.5302 94.4653 30.1252C97.7705 30.5879 98.9604 31.315 101.01 32.4388C101.34 32.6371 101.671 32.8354 102.067 33.0337C104.05 34.1575 105.901 34.2897 107.686 34.488C108.215 34.5541 108.744 34.6202 109.273 34.6863C109.471 34.6863 109.735 34.7524 109.934 34.7524C112.115 35.0169 114.825 35.4135 114.825 37.661C114.825 38.256 114.627 38.7848 114.23 39.1814C113.437 40.0408 111.983 40.1069 110.859 40.1069Z" fill="#F9E0A4"/>
</g>
<g id="Group_19">
<path id="Vector_16" d="M102.399 45.2632C101.473 45.2632 100.217 44.8666 98.7628 44.1395C97.573 43.5445 94.7305 42.6191 90.5659 42.2225C86.5997 41.8258 82.964 42.6191 82.8979 42.6191C82.6996 42.6852 82.5013 42.553 82.4352 42.3547C82.3691 42.1564 82.5013 41.9581 82.6996 41.8919C82.8318 41.8258 86.4675 41.0326 90.5659 41.4953C94.8627 41.9581 97.7713 42.8835 99.0272 43.4784C100.415 44.2056 101.605 44.6022 102.399 44.5361C103.655 44.47 104.778 44.2056 105.572 43.809C106.629 43.2801 109.273 42.2225 110.595 41.8919C111.389 41.6936 113.901 41.0326 114.826 39.2478C115.223 38.5206 115.487 37.7935 115.752 37.0664C116.148 35.9426 116.611 34.7527 117.47 33.4968C117.801 32.9679 118.065 32.5713 118.33 32.1747C119.057 31.117 119.453 30.5221 119.255 30.1916C119.189 30.0594 118.991 29.9271 118.792 29.9271C118.33 29.861 117.735 29.9271 117.206 30.3238C116.809 30.6543 116.214 31.4475 115.685 32.1747C114.958 33.1001 114.231 34.0917 113.702 34.4883C113.438 34.6866 113.24 34.8188 113.107 34.951C112.512 35.4138 112.182 35.6782 111.653 35.8104C111.455 35.8765 111.256 35.6782 111.256 35.4799C111.19 35.2816 111.389 35.0832 111.587 35.0832C111.917 35.0171 112.182 34.8188 112.711 34.4222C112.909 34.29 113.107 34.0917 113.372 33.8934C113.835 33.5629 114.562 32.5713 115.223 31.712C115.818 30.8526 116.413 30.0594 116.875 29.7288C117.47 29.2 118.33 29.0017 119.057 29.1339C119.519 29.2 119.916 29.4644 120.048 29.7949C120.445 30.5221 119.916 31.2492 119.057 32.5052C118.792 32.9018 118.528 33.2984 118.197 33.8273C117.404 35.0832 117.007 36.207 116.545 37.2647C116.28 38.0579 115.95 38.7851 115.553 39.5783C114.429 41.6936 111.719 42.3547 110.794 42.6191C109.472 42.9496 106.894 43.9412 105.902 44.47C104.977 44.9327 103.787 45.1971 102.399 45.2632C102.465 45.2632 102.465 45.2632 102.399 45.2632Z" fill="#F9E0A4"/>
</g>
<g id="Group_20">
<path id="Vector_17" d="M113.305 34.8188C113.239 34.8188 113.173 34.8188 113.107 34.7527C112.909 34.6205 112.843 34.4222 112.975 34.2238C112.975 34.2238 113.504 33.3645 113.636 31.8441C113.834 30.1915 114.76 28.8694 115.222 28.4067C115.619 28.0762 116.346 27.8118 116.941 27.8779C117.338 27.944 117.668 28.1423 117.867 28.4067C117.999 28.605 117.933 28.8033 117.801 28.9355C117.602 29.0677 117.404 29.0016 117.272 28.8694C117.206 28.7372 117.073 28.6711 116.875 28.6711C116.478 28.605 115.95 28.8033 115.751 29.0016C115.421 29.2661 114.561 30.3898 114.429 31.9102C114.231 33.5628 113.636 34.5544 113.636 34.5544C113.504 34.7527 113.438 34.8188 113.305 34.8188Z" fill="#F9E0A4"/>
</g>
<g id="Group_21">
<path id="Vector_18" d="M113.305 39.6442C112.974 39.6442 112.577 39.5781 111.85 39.512C110.859 39.3798 110.132 38.917 109.867 38.5865C109.603 38.256 109.669 37.6611 109.735 37.2644C109.735 37.1983 109.735 37.1322 109.735 37.1322C109.801 36.339 110.33 35.8762 111.189 35.8101C112.181 35.744 113.635 35.8101 113.701 35.8101C113.899 35.8101 114.032 36.0085 114.032 36.2068C114.032 36.4051 113.833 36.5373 113.635 36.5373C113.635 36.5373 112.115 36.4712 111.189 36.5373C110.594 36.6034 110.462 36.8678 110.462 37.1983C110.462 37.2644 110.462 37.3305 110.462 37.3305C110.462 37.5288 110.396 37.9916 110.462 38.1238C110.594 38.3221 111.123 38.6526 111.982 38.7848C112.842 38.917 113.305 38.9831 113.569 38.917C113.767 38.8509 113.966 39.0492 113.966 39.2475C114.032 39.4459 113.833 39.6442 113.635 39.6442C113.569 39.6442 113.437 39.6442 113.305 39.6442Z" fill="#F9E0A4"/>
</g>
<g id="Group_22">
<path id="Vector_19" d="M106.165 32.7035C106.165 32.7035 108.61 30.0594 106.363 26.0932C104.115 22.1269 98.8271 19.8794 98.8271 19.8794C98.8271 19.8794 98.0999 25.5643 100.347 29.5306C102.661 33.4968 106.165 32.7035 106.165 32.7035Z" fill="#F9E0A4"/>
</g>
<g id="Group_23">
<path id="Vector_20" d="M105.437 33.1663C104.181 33.1663 101.735 32.7697 100.017 29.7289C97.703 25.6966 98.3641 20.0777 98.4302 19.8794C98.4302 19.7472 98.4963 19.6811 98.6285 19.615C98.7607 19.5489 98.8268 19.5489 98.959 19.615C99.1573 19.6811 104.38 21.9947 106.693 25.961C109.073 30.1255 106.495 32.968 106.429 32.968C106.363 33.0341 106.297 33.0341 106.23 33.1002C106.23 33.1002 105.966 33.1663 105.437 33.1663ZM99.1573 20.4744C99.0251 21.9286 98.8929 26.2254 100.678 29.3984C102.595 32.7036 105.371 32.5053 105.966 32.4392C106.363 31.9764 107.949 29.6628 106.032 26.3576C104.247 23.1846 100.479 21.1354 99.1573 20.4744Z" fill="#EB0029"/>
</g>
<g id="Group_24">
<path id="Vector_21" d="M104.383 32.7035C104.383 32.7035 101.937 30.0594 104.184 26.0932C106.432 22.1269 111.72 19.8794 111.72 19.8794C111.72 19.8794 112.447 25.5643 110.2 29.5306C107.886 33.4968 104.383 32.7035 104.383 32.7035Z" fill="#F9E0A4"/>
</g>
<g id="Group_25">
<path id="Vector_22" d="M105.109 33.1663C104.646 33.1663 104.315 33.1002 104.315 33.1002C104.249 33.1002 104.183 33.0341 104.117 32.968C104.117 32.968 101.473 30.0594 103.853 25.961C106.166 21.9286 111.322 19.6811 111.587 19.615C111.719 19.5489 111.785 19.5489 111.917 19.615C112.049 19.6811 112.116 19.7472 112.116 19.8794C112.116 20.1438 112.843 25.6966 110.529 29.7289C108.81 32.7697 106.364 33.1663 105.109 33.1663ZM104.58 32.3731C105.175 32.4392 107.951 32.6375 109.868 29.3323C111.653 26.2254 111.521 21.9286 111.388 20.4083C110.066 21.0693 106.298 23.1185 104.514 26.2254C102.597 29.6628 104.183 31.9103 104.58 32.3731Z" fill="#EB0029"/>
</g>
<g id="Group_26">
<path id="Vector_23" d="M116.015 29.1339C115.949 29.1339 115.817 29.0678 115.619 29.0017C115.354 28.9356 115.09 28.8695 114.693 28.8034C114.23 28.7373 113.702 28.605 113.173 28.5389C112.446 28.4728 111.652 28.4067 110.793 28.4067C109.868 28.4067 108.942 28.4728 108.017 28.6712C107.752 28.7373 107.554 28.8034 107.29 28.8695C107.157 28.9356 107.025 28.9356 106.959 29.0017C106.629 29.1339 106.364 29.2 106.1 29.3322C105.703 29.5305 105.373 29.7288 105.108 29.9271C104.844 30.1254 104.579 30.3899 104.381 30.5882C104.117 30.9187 103.918 31.1831 103.72 31.5136C103.654 31.6458 103.522 31.8441 103.456 31.9763C103.389 32.1086 103.323 32.1747 103.323 32.3069C103.191 32.6374 103.125 32.9018 103.125 33.1662C103.257 33.2323 103.389 33.2984 103.522 33.2984C104.711 33.7612 105.901 33.8934 107.025 34.0256C107.223 34.0256 107.488 34.0917 107.686 34.0917C108.083 34.1578 108.479 34.1578 108.876 34.2239C109.008 34.2239 109.801 34.3561 109.934 34.3561C110.132 34.3561 110.264 34.4222 110.463 34.4222C111.19 34.0256 111.851 33.5628 112.446 33.1001C112.842 32.7696 113.173 32.5052 113.503 32.1747C113.9 31.778 114.297 31.4475 114.561 31.0509C114.693 30.9187 114.825 30.7204 114.958 30.5882C115.685 29.7949 116.081 29.2 116.081 29.2C116.081 29.2 116.081 29.2 116.015 29.1339Z" fill="#F9E0A4"/>
</g>
<g id="Group_27">
<path id="Vector_24" d="M110.463 34.8186L109.868 34.7525C109.669 34.7525 108.942 34.6203 108.81 34.6203C108.413 34.5542 108.017 34.5542 107.62 34.4881C107.422 34.4881 107.157 34.422 106.959 34.422H106.893C105.835 34.2898 104.646 34.1576 103.323 33.6949C103.191 33.6288 103.059 33.6288 102.927 33.5627C102.795 33.4966 102.662 33.2983 102.729 33.1661C102.795 32.9016 102.861 32.5711 102.993 32.2406C103.059 32.1084 103.059 32.0423 103.125 31.9101C103.191 31.7779 103.257 31.5796 103.39 31.3812C103.588 31.0507 103.852 30.7202 104.117 30.3897L104.183 30.3236C104.447 30.0592 104.712 29.8609 104.976 29.6625C105.307 29.3981 105.637 29.1998 106.034 29.0015C106.298 28.8693 106.563 28.7371 106.893 28.6049C107.025 28.5388 107.157 28.5388 107.29 28.4727C107.554 28.4066 107.819 28.3405 108.017 28.2744C108.876 28.0761 109.868 27.9438 110.859 27.9438C111.586 27.9438 112.38 28.01 113.239 28.0761C113.768 28.1422 114.231 28.2083 114.759 28.3405C115.156 28.4066 115.42 28.4727 115.685 28.5388C115.685 28.5388 115.685 28.5388 115.751 28.5388C115.883 28.6049 116.015 28.6049 116.082 28.6049C116.148 28.6049 116.148 28.6049 116.214 28.6049C116.28 28.6049 116.28 28.6049 116.28 28.6049C116.412 28.671 116.478 28.7371 116.478 28.8693C116.544 29.0015 116.478 29.0676 116.412 29.1998C116.412 29.1998 116.015 29.7948 115.288 30.6541C115.288 30.6541 115.288 30.6541 115.288 30.7202C115.222 30.8524 115.09 30.9185 115.024 31.0507L114.892 31.1829C114.495 31.5796 114.164 31.9762 113.768 32.3067C113.437 32.6372 113.041 32.9677 112.644 33.2983C111.983 33.8271 111.322 34.2898 110.661 34.6203C110.595 34.8187 110.529 34.8186 110.463 34.8186ZM107.025 33.6949C107.224 33.6949 107.488 33.761 107.686 33.761C108.083 33.8271 108.48 33.8271 108.876 33.8932C109.008 33.8932 109.802 34.0254 109.934 34.0254L110.33 34.0915C110.925 33.761 111.52 33.3644 112.115 32.9016C112.446 32.6372 112.842 32.3067 113.173 31.9762C113.503 31.6457 113.9 31.249 114.231 30.8524L114.363 30.7202C114.429 30.588 114.561 30.5219 114.627 30.4558C114.627 30.4558 114.627 30.3897 114.693 30.3897C115.024 29.9931 115.288 29.6625 115.487 29.4642C115.222 29.3981 114.958 29.332 114.561 29.2659C114.032 29.1337 113.503 29.0676 113.041 29.0015C112.181 28.8693 111.454 28.8693 110.727 28.8693C109.802 28.8693 108.876 28.9354 108.083 29.1337C107.885 29.1998 107.62 29.2659 107.422 29.332C107.29 29.3981 107.224 29.3981 107.091 29.4642C106.827 29.5964 106.563 29.6625 106.298 29.7948C105.968 29.927 105.637 30.1253 105.373 30.3897C105.108 30.588 104.91 30.7863 104.646 31.0507C104.646 31.0507 104.646 31.0507 104.579 31.1168C104.381 31.3812 104.183 31.6457 103.984 31.9101C103.918 32.0423 103.852 32.1745 103.786 32.3067V32.3728C103.72 32.505 103.72 32.5711 103.654 32.6372C103.588 32.8355 103.522 32.9677 103.522 33.0999H103.588C104.778 33.4305 105.902 33.5627 107.025 33.6949Z" fill="#EB0029"/>
</g>
<g id="Group_28">
<path id="Vector_25" d="M107.155 33.8273C107.155 33.8273 107.089 33.8934 106.957 34.0256C105.833 33.8934 104.643 33.7612 103.453 33.2984C103.321 33.2323 103.189 33.2323 103.057 33.1662C102.726 33.034 102.396 32.8357 102.065 32.7035C101.669 32.5052 101.338 32.3069 101.008 32.1086C100.148 31.5797 99.4211 31.1831 98.5618 30.7865C97.5041 30.3237 96.3142 29.9271 94.5294 29.6627C94.265 29.3322 94.1328 29.2 94.1328 29.2C94.1328 29.2 95.5871 28.7373 97.5041 28.5389C98.2312 28.4728 99.0245 28.4067 99.8838 28.4067C100.809 28.4067 101.801 28.5389 102.726 28.8034C102.925 28.8695 103.123 28.9356 103.321 29.0017C103.718 29.1339 104.114 29.3322 104.445 29.5305C104.709 29.6627 104.974 29.7949 105.172 29.9932C105.503 30.2576 105.833 30.5221 106.032 30.7865C106.362 31.1831 106.626 31.5797 106.759 31.9102C106.825 32.1086 106.891 32.3069 106.957 32.4391C107.089 32.7696 107.089 33.034 107.155 33.2323C107.155 33.6289 107.155 33.8273 107.155 33.8273Z" fill="#F9E0A4"/>
</g>
<g id="Group_29">
<path id="Vector_26" d="M106.959 34.4223C106.893 34.4223 106.893 34.4223 106.959 34.4223C105.901 34.2901 104.645 34.1578 103.323 33.6951C103.191 33.629 103.059 33.629 102.926 33.5629C102.596 33.4307 102.199 33.2324 101.869 33.0341C101.538 32.8358 101.142 32.6375 100.811 32.4391L100.547 32.3069C99.7534 31.8442 99.0924 31.4476 98.3653 31.1832C97.4398 30.7865 96.2499 30.3899 94.399 30.1255C94.3329 30.1255 94.2007 30.0594 94.1346 29.9933C93.9363 29.7289 93.8041 29.5967 93.8041 29.5967C93.738 29.5306 93.6719 29.3984 93.6719 29.2662C93.6719 29.134 93.8041 29.0017 93.9363 29.0017C94.0024 29.0017 95.3906 28.539 97.3737 28.3407C98.233 28.2746 99.0263 28.2085 99.7534 28.2085C100.811 28.2085 101.803 28.3407 102.662 28.6051C102.86 28.6712 103.059 28.7373 103.257 28.8034C103.257 28.8034 103.257 28.8034 103.323 28.8034C103.786 28.9356 104.116 29.134 104.513 29.3323C104.777 29.4645 105.042 29.6628 105.306 29.795C105.637 30.0594 105.967 30.3238 106.232 30.6543C106.562 31.051 106.827 31.4476 107.025 31.9103C107.091 32.1086 107.223 32.3069 107.289 32.5052C107.355 32.7697 107.421 33.1002 107.488 33.3646C107.554 33.6951 107.554 33.9595 107.554 33.9595C107.554 34.0256 107.554 34.0917 107.488 34.1578C107.488 34.1578 107.421 34.2901 107.223 34.4223C107.091 34.3562 107.025 34.4223 106.959 34.4223ZM94.9279 29.3323C96.6466 29.5967 97.7703 30.0594 98.6958 30.3899C99.489 30.7204 100.15 31.1171 100.943 31.5798L101.208 31.712C101.604 31.9103 101.935 32.1086 102.265 32.3069C102.596 32.5052 102.926 32.6375 103.257 32.7697C103.389 32.8358 103.521 32.8358 103.587 32.9019C104.711 33.2985 105.769 33.4968 106.827 33.5629C106.827 33.4968 106.827 33.3646 106.76 33.2324C106.694 32.968 106.694 32.7036 106.562 32.5052C106.496 32.373 106.43 32.1747 106.364 31.9764C106.166 31.5798 105.967 31.2493 105.703 30.9188C105.438 30.6543 105.174 30.3899 104.843 30.1255C104.645 29.9933 104.381 29.795 104.182 29.6628C103.852 29.4645 103.521 29.3323 103.191 29.2001C103.191 29.2001 103.191 29.2001 103.125 29.2001C102.926 29.134 102.728 29.0678 102.53 29.0017C101.67 28.7373 100.811 28.6712 99.8195 28.6051C99.0924 28.6051 98.3653 28.6051 97.5059 28.7373C96.4482 29.0017 95.5228 29.2001 94.9279 29.3323Z" fill="#EB0029"/>
</g>
<g id="Group_30">
<path id="Vector_27" d="M105.306 31.1171C105.306 31.1171 108.743 30.0595 108.743 25.4983C108.743 20.9371 105.306 16.376 105.306 16.376C105.306 16.376 101.868 20.9371 101.868 25.4983C101.802 30.0595 105.306 31.1171 105.306 31.1171Z" fill="#F9E0A4"/>
</g>
<g id="Group_31">
<path id="Vector_28" d="M105.307 31.4475C105.241 31.4475 105.241 31.4475 105.174 31.4475C105.108 31.4475 101.473 30.2576 101.473 25.432C101.473 20.8048 104.844 16.2436 104.976 16.0453C105.042 15.9792 105.174 15.9131 105.241 15.9131C105.373 15.9131 105.439 15.9792 105.505 16.0453C105.637 16.2436 109.009 20.7387 109.009 25.432C109.009 30.1915 105.373 31.3814 105.307 31.4475ZM105.307 16.9707C104.513 18.1606 102.266 21.8624 102.266 25.432C102.266 29.2 104.778 30.4559 105.373 30.6543C105.968 30.4559 108.414 29.2 108.414 25.432C108.347 21.8624 106.1 18.2267 105.307 16.9707Z" fill="#EB0029"/>
</g>
<g id="Group_32">
<path id="Vector_29" d="M107.158 32.373C107.158 32.0424 107.091 31.6458 107.025 31.2492C106.959 30.9187 106.827 30.5882 106.695 30.2576C106.563 29.9271 106.364 29.5966 106.166 29.3322C105.968 29.0017 105.703 28.6711 105.373 28.3406C105.307 28.2745 105.307 28.2745 105.241 28.2084C104.778 27.7457 104.315 27.3491 103.786 27.0186C103.191 26.6219 102.53 26.2253 101.935 25.9609C100.944 25.4321 99.8861 25.1015 98.9607 24.8371C97.4403 24.3744 96.3165 24.2422 96.3165 24.2422C96.3165 24.2422 96.5809 26.2253 97.5064 28.5389C97.7708 29.2661 98.1674 30.0593 98.5641 30.7865C99.4234 31.117 100.151 31.5797 101.01 32.1086C101.34 32.3069 101.671 32.5052 102.068 32.7035C102.398 32.9018 102.729 33.034 103.059 33.1662C103.191 33.2323 103.324 33.2984 103.456 33.2984C104.646 33.7611 105.835 33.8934 106.959 34.0256C106.959 34.0256 106.959 34.0256 106.959 33.9595C107.025 33.7611 107.091 33.4967 107.091 33.2323C107.158 33.034 107.158 32.7035 107.158 32.373Z" fill="#F9E0A4"/>
</g>
<g id="Group_33">
<path id="Vector_30" d="M106.957 34.4221C106.891 34.4221 106.891 34.4221 106.891 34.4221C105.833 34.2899 104.643 34.1577 103.321 33.695C103.189 33.6289 103.057 33.6289 102.925 33.5628C102.594 33.4306 102.198 33.2323 101.867 33.034C101.536 32.8356 101.14 32.6373 100.809 32.439L100.545 32.3068C99.7517 31.8441 99.0907 31.4475 98.3635 31.183C98.2974 31.183 98.2313 31.1169 98.1652 31.0508C97.7686 30.3898 97.372 29.5966 97.0414 28.7372C96.116 26.4236 95.8516 24.4405 95.8516 24.3743C95.8516 24.2421 95.8516 24.1099 95.9838 24.0438C96.0499 23.9777 96.1821 23.9116 96.3143 23.9116C96.3804 23.9116 97.4381 24.1099 99.0246 24.5066C100.148 24.8371 101.14 25.2337 102.065 25.6964C102.792 26.0269 103.387 26.4236 103.982 26.8202C104.511 27.2168 105.04 27.6134 105.437 28.0101L105.569 28.1423C105.899 28.5389 106.23 28.8694 106.428 29.1999C106.626 29.5305 106.825 29.861 107.023 30.1915C107.155 30.5881 107.288 30.9186 107.42 31.2492C107.486 31.6458 107.552 32.0424 107.618 32.439C107.618 32.7695 107.618 33.1001 107.552 33.3645C107.486 33.6289 107.486 33.8933 107.42 34.1577C107.42 34.2238 107.354 34.356 107.288 34.4221C107.155 34.4221 107.023 34.4221 106.957 34.4221ZM98.8262 30.4559C99.5534 30.7864 100.214 31.183 101.008 31.5797L101.272 31.7119C101.603 31.9102 101.999 32.1085 102.33 32.3068C102.66 32.5051 102.991 32.6373 103.321 32.7695C103.454 32.8356 103.586 32.8356 103.652 32.9017C104.776 33.2984 105.767 33.4967 106.759 33.5628C106.759 33.4306 106.825 33.2984 106.825 33.1662C106.825 32.9017 106.891 32.6373 106.825 32.3729C106.825 32.0424 106.759 31.7119 106.693 31.3814C106.627 31.1169 106.494 30.7864 106.362 30.4559C106.23 30.1254 106.032 29.861 105.833 29.5966C105.635 29.266 105.371 29.0016 105.04 28.6711L104.908 28.5389C104.511 28.1423 104.048 27.7456 103.52 27.4151C102.991 27.0185 102.33 26.688 101.669 26.3575C100.809 25.8947 99.8839 25.5642 98.7601 25.2337C97.9008 24.9693 97.1736 24.8371 96.7109 24.7049C96.8431 25.432 97.1736 26.8202 97.7686 28.4067C98.0991 29.1338 98.4296 29.861 98.8262 30.4559Z" fill="#EB0029"/>
</g>
<g id="Group_34">
<path id="Vector_31" d="M114.298 24.2422C114.298 24.2422 114.034 26.2253 113.108 28.5389C112.513 30.1254 111.588 31.778 110.266 33.1001C109.803 33.5628 109.34 33.9595 108.878 34.2239C108.481 34.1578 108.084 34.1578 107.688 34.0917C107.489 34.0917 107.225 34.0256 107.027 34.0256C105.903 33.8934 104.713 33.7611 103.523 33.2984C103.457 33.034 103.457 32.7035 103.457 32.373C103.457 32.2408 103.457 32.1085 103.457 31.9763C103.457 31.778 103.523 31.5136 103.589 31.2492C103.655 30.9187 103.788 30.5882 103.92 30.2576C104.052 29.9932 104.184 29.7288 104.382 29.4644C104.647 29.0678 104.911 28.7373 105.308 28.3406C105.308 28.2745 105.374 28.2745 105.44 28.2084C105.903 27.7457 106.366 27.3491 106.894 27.0186C107.489 26.6219 108.15 26.2253 108.811 25.8948C109.869 25.366 110.861 25.0354 111.786 24.771C113.174 24.3744 114.298 24.2422 114.298 24.2422Z" fill="#F9E0A4"/>
</g>
<g id="Group_35">
<path id="Vector_32" d="M108.876 34.6204C108.809 34.6204 108.809 34.6204 108.876 34.6204C108.413 34.5543 108.016 34.5543 107.62 34.4882C107.355 34.4882 107.157 34.4221 106.959 34.4221H106.892C105.835 34.2899 104.645 34.1577 103.323 33.695C103.191 33.6289 103.125 33.5628 103.058 33.4306C102.992 33.1001 102.992 32.7695 102.992 32.439C102.992 32.3068 102.992 32.1746 102.992 32.0424C102.992 31.778 103.058 31.5136 103.125 31.3153C103.191 30.9847 103.323 30.6542 103.455 30.2576C103.587 29.9271 103.786 29.6627 103.918 29.3982C104.182 29.0016 104.513 28.605 104.843 28.2084C104.909 28.1423 104.909 28.1423 104.975 28.0762C105.438 27.6134 105.901 27.2168 106.496 26.8202C107.091 26.4236 107.752 26.0269 108.413 25.6964C109.338 25.2337 110.33 24.8371 111.388 24.5066C111.388 24.5066 111.388 24.5066 111.454 24.5066C112.974 24.0438 114.032 23.9116 114.098 23.9116C114.23 23.9116 114.362 23.9116 114.428 24.0438C114.494 24.1099 114.56 24.2421 114.56 24.3743C114.56 24.4405 114.23 26.4897 113.305 28.8033C112.511 30.7864 111.52 32.3068 110.396 33.4967C109.933 33.9594 109.47 34.356 108.942 34.6866C109.008 34.6205 108.942 34.6204 108.876 34.6204ZM107.025 33.695C107.223 33.695 107.421 33.7611 107.686 33.7611C108.082 33.8272 108.413 33.8272 108.809 33.8933C109.206 33.6289 109.669 33.2984 110.065 32.9017C111.123 31.8441 112.049 30.3237 112.842 28.4728C113.437 26.8863 113.767 25.4981 113.966 24.771C113.503 24.8371 112.776 25.0354 111.916 25.2998C111.916 25.2998 111.916 25.2998 111.85 25.2998C110.793 25.6303 109.867 25.9608 109.008 26.4236C108.347 26.7541 107.752 27.0846 107.157 27.4812C106.628 27.8118 106.165 28.2084 105.769 28.605L105.703 28.6711C105.372 29.0016 105.108 29.3982 104.843 29.7288C104.711 29.9932 104.513 30.1915 104.38 30.522C104.248 30.7864 104.182 31.1169 104.05 31.3814C104.05 31.3814 104.05 31.3814 104.05 31.4475C103.984 31.6458 103.984 31.8441 103.918 32.1085V32.1746C103.918 32.2407 103.918 32.3729 103.918 32.5051C103.918 32.5051 103.918 32.5051 103.918 32.5712C103.918 32.7695 103.918 32.9679 103.918 33.2323C104.909 33.4306 105.967 33.5628 107.025 33.695Z" fill="#EB0029"/>
</g>
<g id="Group_36">
<path id="Vector_33" d="M114.232 33.9596C114.165 33.9596 114.099 33.9596 114.033 33.8935C113.835 33.7613 113.835 33.563 113.967 33.3646C114.165 33.1002 114.298 32.7697 114.496 32.2409C114.628 31.9104 114.76 31.5137 115.025 31.051C115.752 29.3984 117.206 28.5391 117.603 28.2746C118.264 27.878 119.255 27.4814 120.181 28.0763C120.511 28.2746 120.578 28.5391 120.644 28.7374C120.71 29.3323 120.049 29.9272 119.916 30.0594C119.784 30.1917 119.52 30.1917 119.388 29.9933C119.255 29.8611 119.255 29.5967 119.454 29.4645C119.652 29.2662 119.916 28.9357 119.916 28.7374C119.916 28.7374 119.916 28.6713 119.85 28.6052C119.388 28.3407 118.793 28.4068 117.999 28.8035C117.735 28.9357 116.347 29.7289 115.686 31.1832C115.488 31.6459 115.289 32.0426 115.223 32.3731C115.025 32.9019 114.893 33.2985 114.628 33.6291C114.496 33.8935 114.364 33.9596 114.232 33.9596Z" fill="#F9E0A4"/>
</g>
</g>
<g id="Group_37">
<path id="Vector_34" d="M171.804 87.7678C171.077 87.0406 170.217 86.5118 169.292 86.0491C167.706 85.2558 165.987 84.7931 164.268 84.3304C164.202 84.3304 164.136 84.3304 164.004 84.2643C162.351 83.9338 158.848 83.471 156.005 83.5371C155.41 83.5371 154.286 83.6693 152.898 83.8015C150.452 84.066 147.081 84.4626 143.644 84.4626C141.528 84.4626 139.677 84.1982 137.959 83.9999C136.372 83.8015 134.918 83.5371 133.398 83.6032C131.811 83.6032 130.886 83.7354 129.96 83.8677C128.969 83.9999 128.043 84.1321 126.523 84.1321C125.002 84.1321 123.085 83.9999 121.234 83.8677C119.384 83.7354 117.599 83.6693 116.475 83.6693C114.69 83.6693 113.5 83.8015 112.244 83.9338C110.922 84.066 109.402 84.2643 106.89 84.3304C104.18 84.3965 102.197 84.2643 100.478 84.1321C99.0897 83.9999 97.8998 83.9338 96.6438 83.9999C95.5862 83.9999 94.6607 84.1982 93.6692 84.3304C91.9505 84.5948 90.1657 84.8592 87.5876 84.5287C80.5145 83.6032 77.8042 83.9999 74.8957 84.3965C73.4414 84.5948 71.8549 84.7931 69.7396 84.8592C66.6988 84.9253 65.1123 84.727 63.5919 84.5948C62.2037 84.4626 60.8817 84.3304 58.6341 84.3304C56.7832 84.3304 55.7256 84.4626 54.6679 84.5948C53.478 84.727 52.222 84.9253 49.7762 84.9253C48.9169 84.9253 47.9914 84.9253 47.0659 84.8592C44.7523 84.7931 42.1082 84.6609 39.1335 85.1236C38.2741 85.2558 37.4148 85.388 36.6215 85.5202C35.4978 85.7186 34.374 85.9169 33.1841 86.0491C31.8621 86.8423 31.3332 88.4288 32.5892 89.6187C34.374 90.0814 36.3571 90.2797 38.4724 90.2797C45.3472 90.2136 54.6679 89.817 65.4428 89.3543C91.6861 88.2305 127.713 86.7101 151.973 89.0899C152.039 89.0899 152.039 89.0899 152.105 89.0899C152.171 89.0899 152.171 89.0899 152.171 89.0899C159.905 89.817 164.863 91.6018 164.929 91.6018C167.573 92.3289 170.019 92.2628 171.407 91.4035C172.134 90.9408 172.531 90.3458 172.729 89.4865C172.597 88.8915 172.333 88.3627 171.804 87.7678Z" fill="white"/>
</g>
<g id="Group_38">
<path id="Vector_35" d="M33.1165 81.2235C36.7522 82.7439 41.1812 82.149 44.6847 80.6286C44.7508 80.6286 44.8169 80.5625 44.883 80.5625C46.8661 79.5048 48.5848 78.1827 50.1052 76.5962C52.9477 73.5555 54.0714 70.2503 53.5426 66.6806C53.2782 64.7636 52.2205 62.9127 50.5679 61.194C50.5018 61.1279 50.0391 60.7313 49.1798 60.0042C48.4526 59.3431 47.3288 58.4177 46.0068 57.2278C44.3542 55.8396 43.4287 54.5175 43.2304 53.3938C43.0321 52.1378 43.5609 51.014 44.7508 50.1547C45.6101 49.4936 46.5356 49.097 47.6594 48.8326C48.1882 48.7004 48.7831 48.7004 49.312 48.7004C50.1713 48.7004 50.9646 48.6343 51.6917 48.3038C52.6172 47.841 52.7494 46.9156 52.7494 46.4529C52.7494 45.0647 52.0883 43.6765 51.4934 42.8171C50.1713 40.7679 47.3949 40.7679 46.2712 40.834C44.8169 40.9662 43.3626 41.429 42.0405 41.9578C40.7185 42.4866 39.4625 43.0155 38.4048 43.6765C37.2811 44.3375 36.2234 45.1308 35.2318 45.9901C32.3894 48.5682 31.1995 51.4767 31.6622 54.7158C31.9927 56.8973 32.9843 58.8804 34.6369 60.533C34.7691 60.6652 35.4963 61.3262 38.9998 64.0365C40.5862 65.2925 41.4456 66.5484 41.6439 67.7383C41.9744 69.5892 41.1151 71.1757 39.1981 72.4317C38.3387 72.9605 36.5539 73.7538 33.8437 74.7453C32.5216 75.2741 31.7283 76.1335 31.4639 77.1912C31.1995 78.4471 31.8605 79.9675 33.1165 81.1574C33.1165 81.2235 33.1165 81.2235 33.1165 81.2235Z" fill="white"/>
</g>
<g id="Group_39">
<path id="Vector_36" d="M57.7748 51.0804C57.907 52.6669 57.9731 54.2534 57.9731 55.7077V55.7738C57.9731 56.5009 57.9731 59.2112 58.0392 64.4995C58.0392 65.3589 58.0392 65.6894 58.0392 66.2843C58.0392 66.8131 58.0392 67.6064 58.0392 69.1929C58.0392 72.4981 58.0392 75.01 58.1053 76.6626V77.8525C58.1053 79.2407 58.7663 80.1661 60.0223 80.7611C61.2783 80.8272 62.5343 81.0916 63.7902 81.0255C64.7818 80.9594 65.7072 80.7611 66.6988 80.5627C67.8887 79.9678 68.5497 78.9762 68.4836 77.7864C68.4836 77.2575 68.4175 76.5304 68.3514 75.605C68.2853 74.5473 68.2192 73.8201 68.2192 73.4235V73.2252C68.1531 70.6472 68.087 69.3912 68.0209 64.4334C67.9548 59.2112 68.087 54.9805 68.3514 48.6346L68.4175 47.643C68.4836 45.7921 68.0209 44.2717 67.0293 43.2141C66.1039 42.2225 64.6496 41.7598 62.7987 41.7598C60.6172 41.7598 58.8985 42.7513 58.0392 44.3378C57.1137 46.0565 57.3121 47.9074 57.5104 49.7583C57.7087 50.2211 57.7087 50.6838 57.7748 51.0804Z" fill="white"/>
</g>
<g id="Group_40">
<path id="Vector_37" d="M93.2054 77.8523H93.2716C93.4038 77.8523 93.4038 77.9184 93.536 78.1168C93.7343 78.5795 94.3292 79.7693 96.0479 80.4304C96.114 80.4304 96.114 80.4965 96.114 80.4965C97.2378 80.8931 98.4938 80.6948 99.6836 80.6287C100.345 80.5626 101.072 80.5626 101.733 80.4304C101.733 80.4304 101.733 80.4304 101.799 80.4304C103.65 79.571 103.65 77.9184 103.65 77.654C103.584 76.3319 103.452 74.8777 103.385 73.4234C103.187 70.647 103.055 68.5317 103.055 67.0774C102.989 64.2349 102.989 61.3264 103.518 58.55C103.584 58.0873 103.65 57.294 103.055 56.5008C102.394 55.5753 101.204 54.9804 99.4192 54.716C96.5768 54.2533 94.858 56.0381 94.2631 56.633C94.0648 56.8313 93.9987 56.8974 93.9326 56.8974C93.8004 56.8974 93.7343 56.8313 93.6021 56.6991C91.8834 54.7821 89.5036 53.7905 86.529 53.7905C86.4629 53.7905 86.3968 53.7905 86.3968 53.7905C82.0339 53.8566 78.5965 55.2448 76.1506 57.889C73.7709 60.467 72.581 63.9044 72.6471 68.1351C72.7132 71.7708 73.9031 74.9438 76.2829 77.5218C77.6049 78.9761 79.0592 80.0338 80.7118 80.6948C83.6865 81.2236 87.2561 81.3558 90.1647 80.2982C90.9579 79.8355 91.8173 79.1744 92.5444 78.4473C92.8088 78.1168 93.0732 77.9184 93.2054 77.8523ZM88.1155 72.9607H88.0493C86.4629 72.9607 85.1408 72.4318 84.017 71.3742C82.8932 70.3165 82.2983 68.9944 82.2983 67.4079C82.2983 65.7553 82.8271 64.4333 83.8187 63.3756C84.8764 62.3179 86.2645 61.7891 87.9832 61.7891C89.7019 61.7891 91.1562 62.3179 92.2139 63.3095C93.2716 64.3671 93.8665 65.6892 93.8665 67.2757C93.8665 68.8622 93.3377 70.2504 92.28 71.3081C91.2223 72.3657 89.8342 72.9607 88.1155 72.9607Z" fill="white"/>
</g>
<g id="Group_41">
<path id="Vector_38" d="M129.564 77.4556C129.63 77.4556 129.696 77.4556 129.762 77.5217C129.96 77.7201 130.026 77.9184 130.026 78.0506C130.092 78.976 130.621 79.6371 131.613 80.0337C131.613 80.0337 131.679 80.0337 131.679 80.0998C132.869 80.3642 134.191 80.2981 135.381 80.2981C136.306 80.2981 137.298 80.1659 138.223 79.9676C139.545 79.3066 139.677 78.1828 139.611 77.5879C139.281 74.2827 139.083 69.4571 138.95 63.2433C138.884 58.2855 138.884 53.8566 139.016 50.4853V49.5598C139.016 48.3038 139.083 47.3123 139.149 46.1885C139.215 45.6597 139.215 43.8088 137.959 42.4206C137.033 41.429 135.711 40.9663 133.926 40.9663C132.406 40.9663 130.886 41.5612 129.894 42.6189C128.969 43.5444 128.506 44.8003 128.572 46.2546C128.572 46.6512 128.572 47.114 128.638 47.5767C128.638 47.8411 128.638 48.1055 128.704 48.436C128.836 51.0141 128.903 53.6583 128.903 55.2447C128.903 55.4431 128.903 56.1041 128.506 56.1041C128.308 56.1041 128.109 55.9719 127.779 55.6414C126.126 53.9227 123.879 53.0633 120.97 53.1294C116.872 53.1955 113.566 54.5837 111.187 57.3601C108.939 59.9381 107.815 63.2433 107.882 67.2095C107.948 71.1097 109.137 74.3488 111.517 76.9268C113.038 78.5794 114.822 79.7032 116.938 80.2981C118.524 80.2981 120.045 80.5625 121.631 80.4964C122.953 80.4964 124.341 80.3642 125.663 80.0998C126.986 79.571 128.175 78.8438 129.167 77.9184C129.299 77.654 129.431 77.5218 129.564 77.4556ZM123.614 72.4979H123.548C121.962 72.4979 120.64 71.969 119.648 70.8453C118.656 69.7876 118.128 68.4655 118.128 66.9451C118.128 65.3586 118.59 64.0366 119.516 62.9128C120.441 61.789 121.763 61.1941 123.416 61.1941H123.482C125.002 61.1941 126.324 61.7229 127.448 62.8467C128.572 63.9705 129.167 65.2925 129.167 66.7468C129.167 68.2672 128.638 69.6554 127.58 70.7792C126.589 71.9029 125.201 72.4979 123.614 72.4979Z" fill="white"/>
</g>
<g id="Group_42">
<path id="Vector_39" d="M168.365 56.4344C165.655 53.9225 162.152 52.6665 157.921 52.6665C157.855 52.6665 157.789 52.6665 157.656 52.6665C153.161 52.7326 149.592 54.0547 147.014 56.7649C144.436 59.4091 143.18 62.9126 143.18 67.1433C143.246 71.1095 144.634 74.4147 147.41 76.9266C148.997 78.3809 150.914 79.4386 152.963 80.0335H153.029C155.938 80.8268 159.64 80.8268 162.482 79.9674C162.68 79.9013 162.879 79.9013 163.011 79.9013C165.192 79.2403 167.043 78.1826 168.564 76.5961C171.208 74.0181 172.53 70.5807 172.464 66.4161C172.53 62.3838 171.076 59.0125 168.365 56.4344ZM161.887 70.5146C160.896 71.7044 159.573 72.2994 157.987 72.2994H157.921C156.334 72.2994 155.078 71.7044 154.021 70.5807C153.029 69.523 152.566 68.2009 152.5 66.6144C152.5 65.094 152.963 63.772 153.889 62.6482C154.88 61.4583 156.202 60.8634 157.789 60.8634H157.855C159.375 60.8634 160.631 61.4583 161.623 62.516C162.614 63.6397 163.143 64.9618 163.143 66.4822C163.275 68.0687 162.813 69.3908 161.887 70.5146Z" fill="white"/>
</g>
</g>
<g id="Group_43">
<path id="Vector_40" d="M33.1165 81.2235C36.7522 82.7439 41.1812 82.149 44.6847 80.6286C44.7508 80.6286 44.8169 80.5625 44.883 80.5625C46.8661 79.5048 48.5848 78.1827 50.1052 76.5962C52.9477 73.5555 54.0714 70.2503 53.5426 66.6806C53.2782 64.7636 52.2205 62.9127 50.5679 61.194C50.5018 61.1279 50.0391 60.7313 49.1798 60.0042C48.4526 59.3431 47.3288 58.4177 46.0068 57.2278C44.3542 55.8396 43.4287 54.5175 43.2304 53.3938C43.0321 52.1378 43.5609 51.014 44.7508 50.1547C45.6101 49.4936 46.5356 49.097 47.6594 48.8326C48.1882 48.7004 48.7831 48.7004 49.312 48.7004C50.1713 48.7004 50.9646 48.6343 51.6917 48.3038C52.6172 47.841 52.7494 46.9156 52.7494 46.4529C52.7494 45.0647 52.0883 43.6765 51.4934 42.8171C50.1713 40.7679 47.3949 40.7679 46.2712 40.834C44.8169 40.9662 43.3626 41.429 42.0405 41.9578C40.7185 42.4866 39.4625 43.0155 38.4048 43.6765C37.2811 44.3375 36.2234 45.1308 35.2318 45.9901C32.3894 48.5682 31.1995 51.4767 31.6622 54.7158C31.9927 56.8973 32.9843 58.8804 34.6369 60.533C34.7691 60.6652 35.4963 61.3262 38.9998 64.0365C40.5862 65.2925 41.4456 66.5484 41.6439 67.7383C41.9744 69.5892 41.1151 71.1757 39.1981 72.4317C38.3387 72.9605 36.5539 73.7538 33.8437 74.7453C32.5216 75.2741 31.7283 76.1335 31.4639 77.1912C31.1995 78.4471 31.8605 79.9675 33.1165 81.1574C33.1165 81.2235 33.1165 81.2235 33.1165 81.2235Z" fill="white"/>
</g>
<g id="Group_44">
<path id="Vector_41" d="M57.7748 51.0799C57.907 52.6664 57.9731 54.2529 57.9731 55.7072V55.7733C57.9731 56.5004 57.9731 59.2107 58.0392 64.499C58.0392 65.3584 58.0392 65.6889 58.0392 66.2838C58.0392 66.8126 58.0392 67.6059 58.0392 69.1924C58.0392 72.4976 58.0392 75.0095 58.1053 76.6621V77.852C58.1053 79.2402 58.7663 80.1656 60.0223 80.7606C61.2783 80.8267 62.5343 81.0911 63.7902 81.025C64.7818 80.9589 65.7072 80.7606 66.6988 80.5623C67.8887 79.9673 68.5497 78.9758 68.4836 77.7859C68.4836 77.2571 68.4175 76.5299 68.3514 75.6045C68.2853 74.5468 68.2192 73.8197 68.2192 73.423V73.2247C68.1531 70.6467 68.087 69.3907 68.0209 64.4329C67.9548 59.2107 68.087 54.9801 68.3514 48.6341L68.4175 47.6425C68.4836 45.7916 68.0209 44.2712 67.0293 43.2136C66.1039 42.222 64.6496 41.7593 62.7987 41.7593C60.6172 41.7593 58.8985 42.7508 58.0392 44.3373C57.1137 46.056 57.3121 47.9069 57.5104 49.7578C57.7087 50.2206 57.7087 50.6833 57.7748 51.0799Z" fill="white"/>
</g>
<g id="Group_45">
<path id="Vector_42" d="M93.2054 77.8518H93.2716C93.4038 77.8518 93.4038 77.918 93.536 78.1163C93.7343 78.579 94.3292 79.7689 96.0479 80.4299C96.114 80.4299 96.114 80.496 96.114 80.496C97.2378 80.8926 98.4938 80.6943 99.6836 80.6282C100.345 80.5621 101.072 80.5621 101.733 80.4299C101.733 80.4299 101.733 80.4299 101.799 80.4299C103.65 79.5705 103.65 77.918 103.65 77.6535C103.584 76.3315 103.452 74.8772 103.385 73.4229C103.187 70.6465 103.055 68.5312 103.055 67.0769C102.989 64.2345 102.989 61.3259 103.518 58.5495C103.584 58.0868 103.65 57.2935 103.055 56.5003C102.394 55.5748 101.204 54.9799 99.4192 54.7155C96.5768 54.2528 94.858 56.0376 94.2631 56.6325C94.0648 56.8308 93.9987 56.8969 93.9326 56.8969C93.8004 56.8969 93.7343 56.8308 93.6021 56.6986C91.8834 54.7816 89.5036 53.79 86.529 53.79C86.4629 53.79 86.3968 53.79 86.3968 53.79C82.0339 53.8561 78.5965 55.2443 76.1506 57.8885C73.7709 60.4665 72.581 63.9039 72.6471 68.1346C72.7132 71.7703 73.9031 74.9433 76.2829 77.5213C77.6049 78.9756 79.0592 80.0333 80.7118 80.6943C83.6865 81.2231 87.2561 81.3554 90.1647 80.2977C90.9579 79.835 91.8173 79.1739 92.5444 78.4468C92.8088 78.1163 93.0732 77.9179 93.2054 77.8518ZM88.1155 72.9602H88.0493C86.4629 72.9602 85.1408 72.4313 84.017 71.3737C82.8932 70.316 82.2983 68.9939 82.2983 67.4074C82.2983 65.7548 82.8271 64.4328 83.8187 63.3751C84.8764 62.3174 86.2645 61.7886 87.9832 61.7886C89.7019 61.7886 91.1562 62.3174 92.2139 63.309C93.2716 64.3667 93.8665 65.6887 93.8665 67.2752C93.8665 68.8617 93.3377 70.2499 92.28 71.3076C91.2223 72.3652 89.8342 72.9602 88.1155 72.9602Z" fill="white"/>
</g>
<g id="Group_46">
<path id="Vector_43" d="M129.56 77.4556C129.626 77.4556 129.692 77.4556 129.758 77.5217C129.956 77.7201 130.023 77.9184 130.023 78.0506C130.089 78.976 130.617 79.6371 131.609 80.0337C131.609 80.0337 131.675 80.0337 131.675 80.0998C132.865 80.3642 134.187 80.2981 135.377 80.2981C136.302 80.2981 137.294 80.1659 138.219 79.9676C139.542 79.3066 139.674 78.1828 139.608 77.5879C139.277 74.2827 139.079 69.4571 138.947 63.2433C138.88 58.2855 138.88 53.8566 139.013 50.4853V49.5598C139.013 48.3038 139.079 47.3123 139.145 46.1885C139.211 45.6597 139.211 43.8088 137.955 42.4206C137.03 41.429 135.707 40.9663 133.923 40.9663C132.402 40.9663 130.882 41.5612 129.89 42.6189C128.965 43.5444 128.502 44.8003 128.568 46.2546C128.568 46.6512 128.568 47.114 128.634 47.5767C128.634 47.8411 128.634 48.1055 128.7 48.436C128.833 51.0141 128.899 53.6583 128.899 55.2447C128.899 55.4431 128.899 56.1041 128.502 56.1041C128.304 56.1041 128.106 55.9719 127.775 55.6414C126.122 53.9227 123.875 53.0633 120.966 53.1294C116.868 53.1955 113.563 54.5837 111.183 57.3601C108.935 59.9381 107.812 63.2433 107.878 67.2095C107.944 71.1097 109.134 74.3488 111.513 76.9268C113.034 78.5794 114.819 79.7032 116.934 80.2981C118.52 80.2981 120.041 80.5625 121.627 80.4964C122.949 80.4964 124.338 80.3642 125.66 80.0998C126.982 79.571 128.172 78.8438 129.163 77.9184C129.295 77.654 129.428 77.5218 129.56 77.4556ZM123.61 72.4979H123.544C121.958 72.4979 120.636 71.969 119.644 70.8453C118.653 69.7876 118.124 68.4655 118.124 66.9451C118.124 65.3586 118.587 64.0366 119.512 62.9128C120.437 61.789 121.76 61.1941 123.412 61.1941H123.478C124.999 61.1941 126.321 61.7229 127.445 62.8467C128.568 63.9705 129.163 65.2925 129.163 66.7468C129.163 68.2672 128.634 69.6554 127.577 70.7792C126.585 71.9029 125.197 72.4979 123.61 72.4979Z" fill="white"/>
</g>
<g id="Group_47">
<path id="Vector_44" d="M168.365 56.4344C165.655 53.9225 162.152 52.6665 157.921 52.6665C157.855 52.6665 157.789 52.6665 157.656 52.6665C153.161 52.7326 149.592 54.0547 147.014 56.7649C144.436 59.4091 143.18 62.9126 143.18 67.1433C143.246 71.1095 144.634 74.4147 147.41 76.9266C148.997 78.3809 150.914 79.4386 152.963 80.0335H153.029C155.938 80.8268 159.64 80.8268 162.482 79.9674C162.68 79.9013 162.879 79.9013 163.011 79.9013C165.192 79.2403 167.043 78.1826 168.564 76.5961C171.208 74.0181 172.53 70.5807 172.464 66.4161C172.53 62.3838 171.076 59.0125 168.365 56.4344ZM161.887 70.5146C160.896 71.7044 159.573 72.2994 157.987 72.2994H157.921C156.334 72.2994 155.078 71.7044 154.021 70.5807C153.029 69.523 152.566 68.2009 152.5 66.6144C152.5 65.094 152.963 63.772 153.889 62.6482C154.88 61.4583 156.202 60.8634 157.789 60.8634H157.855C159.375 60.8634 160.631 61.4583 161.623 62.516C162.614 63.6397 163.143 64.9618 163.143 66.4822C163.275 68.0687 162.813 69.3908 161.887 70.5146Z" fill="white"/>
</g>
</g>
<defs>
<filter id="filter0_dd_1_3118" x="0.164062" y="0.370117" width="203.866" height="138.365" filterUnits="userSpaceOnUse" color-interpolation-filters="sRGB">
<feFlood flood-opacity="0" result="BackgroundImageFix"/>
<feColorMatrix in="SourceAlpha" type="matrix" values="0 0 0 0 0 0 0 0 0 0 0 0 0 0 0 0 0 0 127 0" result="hardAlpha"/>
<feOffset dy="4"/>
<feGaussianBlur stdDeviation="2"/>
<feComposite in2="hardAlpha" operator="out"/>
<feColorMatrix type="matrix" values="0 0 0 0 0.552941 0 0 0 0 0.215686 0 0 0 0 0 0 0 0 0.17 0"/>
<feBlend mode="normal" in2="BackgroundImageFix" result="effect1_dropShadow_1_3118"/>
<feColorMatrix in="SourceAlpha" type="matrix" values="0 0 0 0 0 0 0 0 0 0 0 0 0 0 0 0 0 0 127 0" result="hardAlpha"/>
<feOffset dy="1"/>
<feGaussianBlur stdDeviation="1"/>
<feComposite in2="hardAlpha" operator="out"/>
<feColorMatrix type="matrix" values="0 0 0 0 0.639216 0 0 0 0 0.34902 0 0 0 0 0.0941176 0 0 0 0.71 0"/>
<feBlend mode="normal" in2="effect1_dropShadow_1_3118" result="effect2_dropShadow_1_3118"/>
<feBlend mode="normal" in="SourceGraphic" in2="effect2_dropShadow_1_3118" result="shape"/>
</filter>
</defs>
</svg>
